<svg width="20" height="20" viewBox="0 0 20 20" fill="none" xmlns="http://www.w3.org/2000/svg">
<mask id="mask0_125_342" style="mask-type:alpha" maskUnits="userSpaceOnUse" x="0" y="0" width="20" height="20">
<rect width="19.2" height="19.2" fill="#D9D9D9"/>
</mask>
<g mask="url(#mask0_125_342)">
<path d="M15.1998 6.39961V4.79961H13.5998V3.19961H15.1998V1.59961H16.7998V3.19961H18.3998V4.79961H16.7998V6.39961H15.1998ZM2.3998 17.5996C1.9598 17.5996 1.58314 17.4429 1.2698 17.1296C0.956471 16.8163 0.799805 16.4396 0.799805 15.9996V6.39961C0.799805 5.95961 0.956471 5.58294 1.2698 5.26961C1.58314 4.95628 1.9598 4.79961 2.3998 4.79961H4.91981L6.3998 3.19961H11.1998V4.79961H7.0998L5.6398 6.39961H2.3998V15.9996H15.1998V8.79961H16.7998V15.9996C16.7998 16.4396 16.6431 16.8163 16.3298 17.1296C16.0165 17.4429 15.6398 17.5996 15.1998 17.5996H2.3998ZM8.7998 14.7996C9.7998 14.7996 10.6498 14.4496 11.3498 13.7496C12.0498 13.0496 12.3998 12.1996 12.3998 11.1996C12.3998 10.1996 12.0498 9.34961 11.3498 8.64961C10.6498 7.94961 9.7998 7.59961 8.7998 7.59961C7.7998 7.59961 6.9498 7.94961 6.2498 8.64961C5.5498 9.34961 5.1998 10.1996 5.1998 11.1996C5.1998 12.1996 5.5498 13.0496 6.2498 13.7496C6.9498 14.4496 7.7998 14.7996 8.7998 14.7996ZM8.7998 13.1996C8.2398 13.1996 7.76647 13.0063 7.37981 12.6196C6.99314 12.2329 6.7998 11.7596 6.7998 11.1996C6.7998 10.6396 6.99314 10.1663 7.37981 9.77961C7.76647 9.39294 8.2398 9.19961 8.7998 9.19961C9.35981 9.19961 9.83314 9.39294 10.2198 9.77961C10.6065 10.1663 10.7998 10.6396 10.7998 11.1996C10.7998 11.7596 10.6065 12.2329 10.2198 12.6196C9.83314 13.0063 9.35981 13.1996 8.7998 13.1996Z" fill="#1C1B1F"/>
</g>
</svg>
