<svg width="50" height="47" viewBox="0 0 50 47" fill="none" xmlns="http://www.w3.org/2000/svg">
<path d="M18.75 10.3846V17.3077H11.25V10.3846H18.75ZM22.5 6.92308H7.5V20.7692H22.5V6.92308ZM18.75 28.8462V35.7692H11.25V28.8462H18.75ZM22.5 25.3846H7.5V39.2308H22.5V25.3846ZM38.75 10.3846V17.3077H31.25V10.3846H38.75ZM42.5 6.92308H27.5V20.7692H42.5V6.92308ZM27.5 25.3846H31.25V28.8462H27.5V25.3846ZM31.25 28.8462H35V32.3077H31.25V28.8462ZM35 25.3846H38.75V28.8462H35V25.3846ZM27.5 32.3077H31.25V35.7692H27.5V32.3077ZM31.25 35.7692H35V39.2308H31.25V35.7692ZM35 32.3077H38.75V35.7692H35V32.3077ZM38.75 28.8462H42.5V32.3077H38.75V28.8462ZM38.75 35.7692H42.5V39.2308H38.75V35.7692ZM50 11.5385H45V4.61538H37.5V0H50V11.5385ZM50 46.1538V34.6154H45V41.5385H37.5V46.1538H50ZM0 46.1538H12.5V41.5385H5V34.6154H0V46.1538ZM0 0V11.5385H5V4.61538H12.5V0H0Z" fill="white"/>
</svg>
