<svg width="18" height="18" viewBox="0 0 18 18" fill="none" xmlns="http://www.w3.org/2000/svg">
<path d="M17.3332 9.00033C17.3332 4.40033 13.5998 0.666992 8.99984 0.666992C4.39984 0.666992 0.666504 4.40033 0.666504 9.00033C0.666504 13.6003 4.39984 17.3337 8.99984 17.3337C13.5998 17.3337 17.3332 13.6003 17.3332 9.00033ZM8.99984 11.3253V9.83366H6.49984C6.0415 9.83366 5.6665 9.45866 5.6665 9.00033C5.6665 8.54199 6.0415 8.16699 6.49984 8.16699H8.99984V6.67533C8.99984 6.30033 9.44984 6.11699 9.70817 6.38366L12.0332 8.70866C12.1998 8.87533 12.1998 9.13366 12.0332 9.30033L9.70817 11.6253C9.44984 11.8837 8.99984 11.7003 8.99984 11.3253Z" fill="white"/>
</svg>
