<svg width="272" height="203" viewBox="0 0 272 203" fill="none" xmlns="http://www.w3.org/2000/svg">
<path d="M192.6 73.7998C192.6 91.4998 184.5 107.4 171.7 117.8C171.1 118.3 170.5 118.8 169.8 119.3C169.2 119.8 168.5 120.2 167.9 120.7C167.6 120.9 167.3 121.1 167 121.3C166.9 121.4 166.8 121.4 166.8 121.5C166.6 121.7 166.3 121.8 166.1 122L166 122.1C165.7 122.3 165.3 122.5 165 122.7C165 122.7 164.9 122.7 164.9 122.8C164.2 123.2 163.6 123.6 162.9 123.9C161.9 124.5 160.8 125 159.7 125.5C159.4 125.6 159 125.8 158.7 125.9C158.6 125.9 158.6 126 158.5 126C158.2 126.1 157.9 126.3 157.5 126.4C157.4 126.4 157.4 126.5 157.3 126.5C157 126.6 156.6 126.8 156.3 126.9C155.9 127 155.6 127.2 155.2 127.3C153.6 127.9 152 128.4 150.4 128.8C150.1 128.9 149.7 129 149.4 129.1C149 129.2 148.7 129.3 148.3 129.4C148.2 129.4 148.1 129.5 148 129.5C147.3 129.7 146.6 129.8 145.9 129.9H145.8C145.1 130 144.4 130.1 143.7 130.2C143.5 130.2 143.4 130.2 143.2 130.3C143 130.3 142.7 130.4 142.5 130.4C142.3 130.4 142 130.5 141.8 130.5C141.7 130.5 141.5 130.5 141.4 130.5C141.1 130.5 140.8 130.6 140.5 130.6C140.3 130.6 140.1 130.6 139.9 130.6C139.7 130.6 139.4 130.6 139.2 130.6C139 130.6 138.8 130.6 138.5 130.6C138.1 130.6 137.6 130.6 137.2 130.6C136.7 130.6 136.3 130.6 135.8 130.6C135.3 130.6 134.9 130.6 134.4 130.6C134 130.6 133.5 130.6 133.1 130.6C132.9 130.6 132.7 130.6 132.4 130.6C132.2 130.6 131.9 130.6 131.7 130.6C131.5 130.6 131.3 130.6 131.1 130.6C130.8 130.6 130.5 130.5 130.2 130.5C130.1 130.5 129.9 130.5 129.8 130.5C129.6 130.5 129.3 130.5 129.1 130.4C128.9 130.4 128.6 130.3 128.4 130.3C128.2 130.3 128.1 130.3 127.9 130.2C127.2 130.1 126.5 130 125.8 129.9H125.7C125 129.8 124.3 129.6 123.6 129.5C123.5 129.5 123.4 129.5 123.3 129.4C123 129.3 122.6 129.2 122.3 129.2C122.3 129.2 122.3 129.2 122.2 129.2C121.9 129.1 121.5 129 121.2 128.9C121.1 128.9 121.1 128.9 121 128.9C120.7 128.8 120.4 128.7 120.1 128.7C119.8 128.6 119.4 128.5 119.1 128.4C118.8 128.3 118.6 128.2 118.3 128.2C118.2 128.2 118 128.1 117.9 128.1C117.6 128 117.3 127.9 117.1 127.8C116.9 127.7 116.6 127.6 116.4 127.5C116.3 127.5 116.2 127.4 116.2 127.4C115.9 127.3 115.6 127.2 115.3 127.1C115.3 127.1 115.2 127.1 115.2 127C115.1 127 115 126.9 114.9 126.9C114.6 126.8 114.4 126.7 114.1 126.6C113.8 126.5 113.5 126.4 113.3 126.2C113.2 126.2 113.1 126.1 113 126.1C112.8 126 112.5 125.9 112.3 125.8C112.2 125.8 112.1 125.7 112 125.7C111.1 125.3 110.3 124.9 109.5 124.5C109.3 124.4 109.1 124.3 108.8 124.1C108.7 124.1 108.6 124 108.5 124C107.9 123.7 107.3 123.3 106.7 123C106.7 123 106.6 123 106.6 122.9C106.3 122.7 106 122.5 105.7 122.4L105.6 122.3C105.5 122.3 105.5 122.2 105.5 122.2C105.3 122.1 105.1 121.9 104.9 121.8L104.8 121.7C104.7 121.6 104.6 121.6 104.6 121.5C104.4 121.4 104.3 121.3 104.1 121.2C104 121.1 103.8 121 103.7 120.9C103.5 120.8 103.4 120.7 103.2 120.6C103.1 120.5 103 120.4 102.8 120.3C102.6 120.2 102.5 120.1 102.3 120C102.2 120 102.2 119.9 102.1 119.9C102 119.8 101.8 119.7 101.7 119.6C101.6 119.5 101.5 119.5 101.5 119.4C100.9 119 100.4 118.6 99.9 118.1C87.2 107.7 79 91.7998 79 74.0998C79 56.3998 87.1 40.4998 99.9 30.0998C101.9 28.4998 104 26.9998 106.2 25.5998C106.8 25.2998 107.3 24.8998 107.9 24.5998C116.1 19.9998 125.6 17.2998 135.6 17.2998H135.8C146 17.2998 155.5 19.9998 163.8 24.5998C164.4 24.8998 164.9 25.1998 165.5 25.5998C167.7 26.8998 169.8 28.3998 171.8 30.0998C184.5 40.1998 192.6 56.0998 192.6 73.7998Z" fill="#6DCEF5"/>
<path d="M188 73.7992C188 90.0992 180.5 104.599 168.8 114.199C168.2 114.699 167.7 115.099 167.1 115.499C166.5 115.899 165.9 116.399 165.3 116.799C165 116.999 164.8 117.199 164.5 117.299C164.4 117.299 164.3 117.399 164.3 117.499C164.1 117.599 163.9 117.799 163.6 117.899L163.5 117.999C163.2 118.199 162.9 118.399 162.6 118.599H162.5C161.9 118.999 161.3 119.299 160.6 119.699C159.6 120.199 158.7 120.699 157.7 121.199C157.4 121.299 157.1 121.499 156.8 121.599C156.7 121.599 156.7 121.699 156.6 121.699C156.3 121.799 156 121.999 155.7 122.099C155.6 122.099 155.6 122.099 155.5 122.199C155.2 122.299 154.9 122.399 154.6 122.599C154.3 122.699 153.9 122.899 153.6 122.999C152.2 123.499 150.7 123.999 149.2 124.399C148.9 124.499 148.6 124.599 148.3 124.599C148 124.699 147.6 124.799 147.3 124.799C147.2 124.799 147.1 124.799 147 124.899C146.4 124.999 145.7 125.199 145.1 125.299H145C144.4 125.399 143.7 125.499 143.1 125.599C143 125.599 142.8 125.599 142.7 125.699C142.5 125.699 142.3 125.699 142.1 125.799C141.9 125.799 141.6 125.899 141.4 125.899C141.3 125.899 141.2 125.899 141 125.899C140.7 125.899 140.4 125.999 140.2 125.999C140 125.999 139.8 125.999 139.6 125.999C139.4 125.999 139.2 125.999 138.9 125.999C138.7 125.999 138.5 125.999 138.3 125.999C137.9 125.999 137.5 125.999 137.1 125.999C136.7 125.999 136.2 125.999 135.8 125.999C135.4 125.999 134.9 125.999 134.5 125.999C134.1 125.999 133.7 125.999 133.3 125.999C133.1 125.999 132.9 125.999 132.7 125.999C132.5 125.999 132.3 125.999 132 125.999C131.8 125.999 131.6 125.999 131.4 125.999C131.1 125.999 130.8 125.999 130.6 125.899C130.5 125.899 130.4 125.899 130.2 125.899C130 125.899 129.7 125.899 129.5 125.799C129.3 125.799 129.1 125.699 128.9 125.699C128.8 125.699 128.6 125.699 128.5 125.599C127.9 125.499 127.2 125.399 126.6 125.299H126.5C125.8 125.199 125.2 125.099 124.6 124.899C124.5 124.899 124.4 124.899 124.3 124.799C124 124.699 123.7 124.699 123.4 124.599C123.4 124.599 123.4 124.599 123.3 124.599C123 124.499 122.7 124.399 122.4 124.399C122.3 124.399 122.3 124.399 122.2 124.399C121.9 124.299 121.7 124.299 121.4 124.199C121.1 124.099 120.8 123.999 120.5 123.899C120.3 123.799 120 123.799 119.8 123.699C119.7 123.699 119.5 123.599 119.4 123.599C119.1 123.499 118.9 123.399 118.6 123.299C118.4 123.199 118.2 123.099 117.9 123.099C117.8 123.099 117.7 122.999 117.7 122.999C117.4 122.899 117.2 122.799 116.9 122.699H116.8C116.7 122.699 116.6 122.599 116.5 122.599C116.3 122.499 116 122.399 115.8 122.299C115.5 122.199 115.3 122.099 115 121.999C114.9 121.999 114.8 121.899 114.7 121.899C114.5 121.799 114.3 121.699 114 121.599C113.9 121.599 113.8 121.499 113.7 121.499C112.9 121.099 112.1 120.799 111.4 120.399C111.2 120.299 111 120.199 110.8 120.099C110.7 120.099 110.6 119.999 110.6 119.999C110.1 119.699 109.5 119.399 109 119.099C109 119.099 109 119.099 108.9 119.099C108.6 118.899 108.4 118.799 108.1 118.599C108.1 118.599 108 118.599 108 118.499C108 118.499 107.9 118.499 107.9 118.399C107.7 118.299 107.5 118.199 107.3 117.999L107.2 117.899C107.1 117.799 107 117.799 107 117.699C106.9 117.599 106.7 117.499 106.6 117.399C106.5 117.299 106.4 117.199 106.2 117.199C106 117.099 105.9 116.999 105.8 116.899C105.7 116.799 105.6 116.699 105.5 116.699C105.4 116.599 105.2 116.499 105.1 116.399C105 116.399 105 116.299 104.9 116.299C104.8 116.199 104.6 116.099 104.5 115.999C104.4 115.899 104.4 115.899 104.3 115.799C103.8 115.399 103.3 114.999 102.8 114.599C91.2002 104.699 83.7002 90.0992 83.7002 73.7992C83.7002 57.4992 91.2002 42.9992 102.9 33.3992C104.7 31.8992 106.7 30.4992 108.7 29.2992C109.2 28.9992 109.7 28.6992 110.2 28.3992C117.7 24.0992 126.4 21.6992 135.7 21.6992H135.9C145.2 21.6992 154 24.1992 161.6 28.3992C162.1 28.6992 162.6 28.9992 163.1 29.2992C165.1 30.4992 167 31.8992 168.9 33.3992C180.5 42.9992 188 57.4992 188 73.7992Z" fill="#35A2DB"/>
<path d="M173.6 74V109.8C172.1 111.4 170.5 112.8 168.9 114.2C168.5 114.5 168.1 114.8 167.7 115.1C167.5 115.2 167.4 115.4 167.2 115.5C166.6 115.9 166 116.4 165.4 116.8C165.1 117 164.9 117.2 164.6 117.3C164.5 117.3 164.4 117.4 164.4 117.5C164.2 117.6 164 117.8 163.7 117.9L163.6 118C163.3 118.2 163 118.4 162.7 118.6C162.7 118.6 162.7 118.6 162.6 118.6C162 119 161.4 119.3 160.8 119.6C159.8 120.1 158.9 120.6 157.9 121.1C157.6 121.2 157.3 121.4 157 121.5C156.9 121.5 156.9 121.6 156.8 121.6C156.5 121.7 156.2 121.9 155.9 122C155.8 122 155.8 122 155.7 122.1C155.4 122.2 155.1 122.3 154.8 122.5C154.5 122.6 154.1 122.8 153.8 122.9C152.4 123.4 150.9 123.9 149.4 124.3C149.1 124.4 148.8 124.5 148.5 124.5C148.2 124.6 147.8 124.7 147.5 124.7C147.4 124.7 147.3 124.7 147.2 124.8C146.6 124.9 145.9 125.1 145.3 125.2H145.2C144.6 125.3 143.9 125.4 143.3 125.5C143.2 125.5 143 125.5 142.9 125.6C142.7 125.6 142.5 125.6 142.3 125.7C142.1 125.7 141.8 125.7 141.6 125.8C141.5 125.8 141.4 125.8 141.2 125.8C140.9 125.8 140.6 125.9 140.4 125.9C140.2 125.9 140 125.9 139.8 125.9C139.6 125.9 139.4 125.9 139.1 125.9C138.9 125.9 138.7 125.9 138.5 125.9C138.1 125.9 137.7 125.9 137.3 125.9C136.9 125.9 136.4 125.9 136 125.9C135.6 125.9 135.1 125.9 134.7 125.9C134.3 125.9 133.9 125.9 133.5 125.9C133.3 125.9 133.1 125.9 132.9 125.9C132.7 125.9 132.5 125.9 132.2 125.9C132 125.9 131.8 125.9 131.6 125.9C131.3 125.9 131 125.9 130.8 125.8C130.7 125.8 130.6 125.8 130.4 125.8C130.2 125.8 129.9 125.8 129.7 125.7C129.5 125.7 129.3 125.6 129.1 125.6C129 125.6 128.8 125.6 128.7 125.5C128.1 125.4 127.4 125.3 126.8 125.2C126.8 125.2 126.8 125.2 126.7 125.2C126 125.1 125.4 125 124.8 124.8C124.7 124.8 124.6 124.8 124.5 124.7C124.2 124.6 123.9 124.6 123.6 124.5C123.6 124.5 123.6 124.5 123.5 124.5C123.2 124.4 122.9 124.3 122.6 124.3C122.5 124.3 122.5 124.3 122.4 124.3C122.1 124.2 121.9 124.2 121.6 124.1C121.3 124 121 123.9 120.7 123.8C120.5 123.7 120.2 123.7 120 123.6C119.9 123.6 119.7 123.5 119.6 123.5C119.3 123.4 119.1 123.3 118.8 123.2C118.6 123.1 118.4 123 118.1 123C118 123 118 122.9 117.9 122.9C117.6 122.8 117.4 122.7 117.1 122.6H117C116.9 122.6 116.8 122.5 116.7 122.5C116.5 122.4 116.2 122.3 116 122.2C115.7 122.1 115.5 122 115.2 121.9C115.1 121.9 115 121.8 114.9 121.8C114.7 121.7 114.5 121.6 114.2 121.5C114.1 121.5 114 121.4 113.9 121.4C113.1 121 112.3 120.7 111.6 120.2C111.4 120.1 111.2 120 111 119.9C110.9 119.9 110.8 119.8 110.8 119.8C110.3 119.5 109.7 119.2 109.2 118.9C109.2 118.9 109.2 118.9 109.1 118.9C108.8 118.7 108.6 118.6 108.3 118.4C108.3 118.4 108.2 118.4 108.2 118.3C108.2 118.3 108.1 118.3 108.1 118.2C107.9 118.1 107.7 118 107.5 117.8L107.4 117.7C107.3 117.6 107.2 117.6 107.2 117.5C107.1 117.4 106.9 117.3 106.8 117.2C106.7 117.1 106.6 117 106.4 117C106.3 116.9 106.1 116.8 106 116.7C105.9 116.6 105.8 116.5 105.7 116.5C105.6 116.4 105.4 116.3 105.3 116.2C105.2 116.2 105.2 116.1 105.1 116.1C105 116 104.8 115.9 104.7 115.8C104.6 115.7 104.6 115.7 104.5 115.6C104.4 115.5 104.3 115.4 104.2 115.4C103.8 115.1 103.4 114.8 103 114.5C101.3 113.1 99.6998 111.7 98.2998 110.1V96.2C98.8998 96.7 99.3998 97.1 99.9998 97.5C100.1 97.6 100.2 97.6 100.2 97.7C100.3 97.8 100.5 97.9 100.7 98C100.8 98 100.8 98.1 100.9 98.1C101.1 98.2 101.2 98.3 101.4 98.5C101.5 98.6 101.7 98.7 101.8 98.8C101.9 98.9 102.1 99 102.2 99.1C102.2 99.1 102.3 99.1 102.3 99.2C102.4 99.3 102.6 99.4 102.7 99.5C103 99.7 103.2 99.8 103.5 100L103.6 100.1C103.8 100.2 104 100.4 104.2 100.5L104.3 100.6L104.4 100.7C104.7 100.9 105 101.1 105.3 101.3C105.3 101.3 105.4 101.3 105.4 101.4C106 101.8 106.6 102.1 107.2 102.5C107.4 102.6 107.7 102.8 107.9 102.9C108 102.9 108 103 108.1 103C109 103.5 109.9 103.9 110.8 104.3C110.9 104.3 111 104.4 111.1 104.4C111.4 104.5 111.6 104.6 111.8 104.7C111.9 104.8 112 104.8 112.1 104.8C112.4 104.9 112.7 105.1 113 105.2C113.3 105.3 113.5 105.4 113.8 105.5C113.9 105.5 114 105.6 114.1 105.6C114.1 105.6 114.2 105.6 114.2 105.7C114.5 105.8 114.8 105.9 115.1 106.1C115.4 106.2 115.8 106.3 116.1 106.5C116.4 106.6 116.7 106.7 117 106.8C117.1 106.8 117.3 106.9 117.4 106.9C117.7 107 117.9 107.1 118.2 107.2C118.6 107.3 118.9 107.4 119.3 107.5C119.7 107.6 120 107.7 120.4 107.8C120.7 107.9 121.1 108 121.4 108.1C121.4 108.1 121.4 108.1 121.5 108.1C122 108.2 122.4 108.3 122.9 108.4C123.5 108.5 124.1 108.7 124.7 108.8C125.1 108.9 125.4 108.9 125.8 109C127.3 109.2 128.8 109.4 130.3 109.6C145.2 104.7 158.1 95.4 167.4 83.2C169.8 80.2 171.8 77.2 173.6 74Z" fill="#146F9E"/>
<path d="M173.6 11.9996V73.9996C171.8 77.0996 169.9 80.1996 167.7 82.9996C158.4 95.1996 145.5 104.5 130.6 109.4C129.1 109.3 127.6 109.1 126.1 108.8C125.7 108.7 125.3 108.7 125 108.6C124.4 108.5 123.8 108.4 123.2 108.2C122.7 108.1 122.3 108 121.8 107.9C121.8 107.9 121.8 107.9 121.7 107.9C121.3 107.8 121 107.7 120.7 107.6C120.3 107.5 120 107.4 119.6 107.3C119.2 107.2 118.9 107.1 118.5 107C118.2 106.9 118 106.8 117.7 106.7C117.6 106.7 117.4 106.6 117.3 106.6C117 106.5 116.7 106.4 116.4 106.3C116.1 106.2 115.7 106.1 115.4 105.9C115.1 105.8 114.8 105.7 114.5 105.5C114.5 105.5 114.4 105.5 114.4 105.4C114.3 105.4 114.2 105.3 114.1 105.3C113.8 105.2 113.6 105.1 113.3 105C113 104.9 112.7 104.8 112.4 104.6C112.3 104.6 112.2 104.5 112.1 104.5C111.9 104.4 111.6 104.3 111.4 104.2C111.3 104.2 111.2 104.1 111.1 104.1C110.2 103.7 109.3 103.2 108.4 102.8C108.3 102.8 108.3 102.7 108.2 102.7C108 102.6 107.7 102.4 107.5 102.3C106.9 102 106.3 101.6 105.7 101.2C105.7 101.2 105.6 101.2 105.6 101.1C105.3 100.9 105 100.7 104.7 100.5L104.6 100.4L104.5 100.3C104.3 100.2 104.1 99.9996 103.9 99.8996L103.8 99.7996C103.5 99.5996 103.3 99.4996 103 99.2996C102.9 99.1996 102.7 99.0996 102.6 98.9996C102.6 98.9996 102.5 98.9996 102.5 98.8996C102.4 98.7996 102.2 98.6996 102.1 98.5996C102 98.4996 101.8 98.3996 101.7 98.2996C101.5 98.1996 101.4 98.0996 101.2 97.8996C101.1 97.8996 101.1 97.7996 101 97.7996C100.8 97.6996 100.7 97.5996 100.5 97.4996C100.4 97.3996 100.3 97.3996 100.3 97.2996C99.7 96.8996 99.1 96.3996 98.6 95.9996V11.9996C98.1 5.39961 103.5 0.0996094 110.1 0.0996094H161.7C162.3 0.0996094 163 0.0996094 163.6 0.199609C163.8 0.199609 164 0.299609 164.1 0.299609C164.9 0.499609 165.6 0.699609 166.3 0.999609C166.6 1.09961 167 1.29961 167.3 1.49961C167.7 1.69961 168 1.89961 168.3 2.09961C168.4 2.19961 168.6 2.29961 168.7 2.39961C168.9 2.49961 169 2.59961 169.1 2.69961C169.2 2.79961 169.3 2.89961 169.4 2.99961C169.6 3.09961 169.7 3.29961 169.9 3.49961C171.7 5.19961 172.9 7.49961 173.3 9.99961C173.3 9.99961 173.3 9.99961 173.3 10.0996C173.3 10.1996 173.3 10.3996 173.4 10.4996C173.4 10.4996 173.4 10.4996 173.4 10.5996C173.4 10.6996 173.4 10.8996 173.4 10.9996C173.5 11.2996 173.6 11.6996 173.6 11.9996Z" fill="#6DCEF5"/>
<path d="M160.5 5.6C164.4 5.6 167.6 8.8 167.6 12.7V115.2C167.4 115.3 167.3 115.5 167.1 115.6C166.5 116 165.9 116.5 165.3 116.9C165 117.1 164.8 117.3 164.5 117.4C164.4 117.4 164.3 117.5 164.3 117.6C164.1 117.7 163.9 117.9 163.6 118L163.5 118.1C163.2 118.3 162.9 118.5 162.6 118.7C162.6 118.7 162.6 118.7 162.5 118.7C161.9 119.1 161.3 119.4 160.7 119.7C159.7 120.2 158.8 120.7 157.8 121.2C157.5 121.3 157.2 121.5 156.9 121.6C156.8 121.6 156.8 121.7 156.7 121.7C156.4 121.8 156.1 122 155.8 122.1C155.7 122.1 155.7 122.1 155.6 122.2C155.3 122.3 155 122.4 154.7 122.6C154.4 122.7 154 122.9 153.7 123C152.3 123.5 150.8 124 149.3 124.4C149 124.5 148.7 124.6 148.4 124.6C148.1 124.7 147.7 124.8 147.4 124.8C147.3 124.8 147.2 124.8 147.1 124.9C146.5 125 145.8 125.2 145.2 125.3H145.1C144.5 125.4 143.8 125.5 143.2 125.6C143.1 125.6 142.9 125.6 142.8 125.7C142.6 125.7 142.4 125.7 142.2 125.8C142 125.8 141.7 125.8 141.5 125.9C141.4 125.9 141.3 125.9 141.1 125.9C140.8 125.9 140.5 126 140.3 126C140.1 126 139.9 126 139.7 126C139.5 126 139.3 126 139 126C138.8 126 138.6 126 138.4 126C138 126 137.6 126 137.2 126C136.8 126 136.3 126 135.9 126C135.5 126 135 126 134.6 126C134.2 126 133.8 126 133.4 126C133.2 126 133 126 132.8 126C132.6 126 132.4 126 132.1 126C131.9 126 131.7 126 131.5 126C131.2 126 130.9 126 130.7 125.9C130.6 125.9 130.5 125.9 130.3 125.9C130.1 125.9 129.8 125.9 129.6 125.8C129.4 125.8 129.2 125.7 129 125.7C128.9 125.7 128.7 125.7 128.6 125.6C128 125.5 127.3 125.4 126.7 125.3C126.7 125.3 126.7 125.3 126.6 125.3C125.9 125.2 125.3 125.1 124.7 124.9C124.6 124.9 124.5 124.9 124.4 124.8C124.1 124.7 123.8 124.7 123.5 124.6C123.5 124.6 123.5 124.6 123.4 124.6C123.1 124.5 122.8 124.4 122.5 124.4C122.4 124.4 122.4 124.4 122.3 124.4C122 124.3 121.8 124.3 121.5 124.2C121.2 124.1 120.9 124 120.6 123.9C120.4 123.8 120.1 123.8 119.9 123.7C119.8 123.7 119.6 123.6 119.5 123.6C119.2 123.5 119 123.4 118.7 123.3C118.5 123.2 118.3 123.1 118 123.1C117.9 123.1 117.9 123 117.8 123C117.5 122.9 117.3 122.8 117 122.7H116.9C116.8 122.7 116.7 122.6 116.6 122.6C116.4 122.5 116.1 122.4 115.9 122.3C115.6 122.2 115.4 122.1 115.1 122C115 122 114.9 121.9 114.8 121.9C114.6 121.8 114.4 121.7 114.1 121.6C114 121.6 113.9 121.5 113.8 121.5C113 121.1 112.2 120.8 111.5 120.3C111.3 120.2 111.1 120.1 110.9 120C110.8 120 110.7 119.9 110.7 119.9C110.2 119.6 109.6 119.3 109.1 119C109.1 119 109.1 119 109 119C108.7 118.8 108.5 118.7 108.2 118.5C108.2 118.5 108.1 118.5 108.1 118.4C108.1 118.4 108 118.4 108 118.3C107.8 118.2 107.6 118.1 107.4 117.9L107.3 117.8C107.2 117.7 107.1 117.7 107.1 117.6C107 117.5 106.8 117.4 106.7 117.3C106.6 117.2 106.5 117.1 106.3 117.1C106.2 117 106 116.9 105.9 116.8C105.8 116.7 105.7 116.6 105.6 116.6C105.5 116.5 105.3 116.4 105.2 116.3C105.1 116.3 105.1 116.2 105 116.2C104.9 116.1 104.7 116 104.6 115.9C104.5 115.8 104.5 115.8 104.4 115.7C104.3 115.6 104.2 115.5 104.1 115.5V12.4C104.1 8.6 107.2 5.5 111 5.5H160.5V5.6Z" fill="white"/>
<path d="M117.5 48.5V57.2H120.4V51.4H126.2V48.5H117.5ZM120.4 82.3V76.5H117.5V85.2H126.2V82.3H120.4ZM151.3 76.5V82.3H145.5V85.2H154.2V76.5H151.3ZM145.5 48.5V51.4H151.3V57.2H154.2V48.5H145.5ZM145.9 77V79.6H148.5V77H145.9ZM145.9 71.7V74.3H148.5V71.7H145.9ZM143.3 74.3V76.9H145.9V74.3H143.3ZM140.7 77V79.6H143.3V77H140.7ZM138.1 74.3V76.9H140.7V74.3H138.1ZM143.3 69.1V71.7H145.9V69.1H143.3ZM140.7 71.7V74.3H143.3V71.7H140.7ZM138.1 69.1V71.7H140.7V69.1H138.1ZM138.1 54.2V64.7H148.6V54.2H138.1ZM146.3 62.3H140.4V56.4H146.3V62.3ZM123.1 69.1V79.6H133.6V69.1H123.1ZM131.3 77.3H125.4V71.4H131.3V77.3ZM123.1 54.2V64.7H133.6V54.2H123.1ZM131.3 62.3H125.4V56.4H131.3V62.3Z" fill="#153A62"/>
<path d="M12.2 188.9C12.1 188.7 11.9 188.6 11.6 188.4C11.4 188.3 11.1 188.1 10.8 188C10.5 187.9 10.2 187.8 9.9 187.7C9.6 187.6 9.2 187.6 8.8 187.6C7.9 187.6 7.2 187.8 6.7 188.1C6.3 188.5 6 188.9 6 189.6C6 190 6.1 190.4 6.3 190.6C6.5 190.9 6.9 191.1 7.4 191.2C7.9 191.4 8.5 191.5 9.2 191.7C10.1 191.9 10.8 192.1 11.4 192.4C12 192.7 12.5 193 12.8 193.5C13.1 193.9 13.3 194.5 13.3 195.3C13.3 195.9 13.2 196.4 13 196.8C12.8 197.2 12.5 197.6 12.1 197.9C11.7 198.2 11.2 198.4 10.7 198.5C10.2 198.6 9.7 198.7 9 198.7C8.4 198.7 7.8 198.6 7.2 198.5C6.6 198.4 6 198.2 5.5 197.9C5 197.6 4.5 197.3 4 196.9L4.7 195.6C4.9 195.8 5.1 196 5.4 196.2C5.7 196.4 6 196.6 6.4 196.7C6.8 196.9 7.2 197 7.6 197.1C8 197.2 8.5 197.2 8.9 197.2C9.8 197.2 10.5 197 10.9 196.7C11.4 196.4 11.6 195.9 11.6 195.3C11.6 194.8 11.5 194.5 11.2 194.2C10.9 193.9 10.5 193.7 10 193.5C9.5 193.3 8.8 193.1 8.1 192.9C7.3 192.7 6.6 192.5 6 192.2C5.4 192 5 191.6 4.7 191.2C4.4 190.8 4.3 190.3 4.3 189.6C4.3 188.8 4.5 188.2 4.9 187.6C5.3 187.1 5.8 186.7 6.5 186.4C7.2 186.1 7.9 186 8.8 186C9.4 186 9.9 186.1 10.3 186.2C10.8 186.3 11.2 186.5 11.6 186.7C12 186.9 12.4 187.2 12.7 187.4L12.2 188.9Z" fill="#BEEBFD"/>
<path d="M19.8001 198.8C19.1001 198.8 18.5001 198.7 17.9001 198.4C17.3001 198.2 16.9001 197.8 16.4001 197.4C15.9001 197 15.7001 196.5 15.4001 195.9C15.2001 195.3 15.1001 194.7 15.1001 194.1C15.1001 193.3 15.3001 192.5 15.7001 191.8C16.1001 191.1 16.6001 190.5 17.3001 190.1C18.0001 189.7 18.8001 189.5 19.7001 189.5C20.6001 189.5 21.4001 189.7 22.0001 190.1C22.7001 190.5 23.2001 191 23.5001 191.7L22.0001 192.2C21.8001 191.8 21.4001 191.4 21.0001 191.2C20.6001 191 20.1001 190.8 19.6001 190.8C19.0001 190.8 18.5001 190.9 18.1001 191.2C17.6001 191.5 17.3001 191.9 17.0001 192.4C16.7001 192.9 16.6001 193.5 16.6001 194.1C16.6001 194.7 16.7001 195.3 17.0001 195.8C17.3001 196.3 17.6001 196.7 18.1001 197C18.6001 197.3 19.1001 197.4 19.6001 197.4C20.0001 197.4 20.3001 197.3 20.6001 197.2C20.9001 197.1 21.2001 196.9 21.5001 196.7C21.7001 196.5 21.9001 196.3 22.0001 196L23.5001 196.4C23.3001 196.8 23.0001 197.2 22.7001 197.6C22.3001 197.9 21.9001 198.2 21.4001 198.4C21.0001 198.7 20.4001 198.8 19.8001 198.8Z" fill="#BEEBFD"/>
<path d="M25.2002 196C25.2002 195.4 25.4002 194.9 25.7002 194.5C26.0002 194.1 26.5002 193.8 27.1002 193.5C27.7002 193.3 28.3002 193.2 29.1002 193.2C29.5002 193.2 29.9002 193.2 30.4002 193.3C30.8002 193.4 31.2002 193.5 31.6002 193.6V192.9C31.6002 192.2 31.4002 191.7 31.0002 191.3C30.6002 190.9 30.0002 190.7 29.2002 190.7C28.7002 190.7 28.2002 190.8 27.8002 191C27.3002 191.2 26.9002 191.4 26.4002 191.8L25.7002 190.7C26.3002 190.3 26.9002 190 27.5002 189.8C28.1002 189.6 28.7002 189.5 29.3002 189.5C30.5002 189.5 31.4002 189.8 32.0002 190.5C32.7002 191.1 33.0002 192 33.0002 193.1V196.9C33.0002 197.1 33.0002 197.2 33.1002 197.3C33.2002 197.4 33.3002 197.4 33.5002 197.4V198.6C33.4002 198.6 33.2002 198.6 33.1002 198.7C33.0002 198.7 32.9002 198.7 32.8002 198.7C32.4002 198.7 32.2002 198.6 32.0002 198.4C31.8002 198.2 31.7002 198 31.7002 197.8V197.2C31.3002 197.7 30.8002 198.1 30.2002 198.4C29.6002 198.7 28.9002 198.8 28.3002 198.8C27.7002 198.8 27.2002 198.7 26.7002 198.4C26.2002 198.2 25.9002 197.8 25.6002 197.4C25.3002 197 25.2002 196.5 25.2002 196ZM31.1002 196.6C31.2002 196.4 31.3002 196.3 31.4002 196.1C31.5002 195.9 31.5002 195.8 31.5002 195.7V194.6C31.1002 194.5 30.8002 194.4 30.4002 194.3C30.0002 194.2 29.6002 194.2 29.2002 194.2C28.4002 194.2 27.8002 194.4 27.3002 194.7C26.8002 195 26.6002 195.4 26.6002 195.9C26.6002 196.2 26.7002 196.5 26.8002 196.7C27.0002 197 27.2002 197.2 27.5002 197.4C27.8002 197.6 28.2002 197.7 28.6002 197.7C29.1002 197.7 29.5002 197.6 29.9002 197.4C30.5002 197.1 30.8002 196.9 31.1002 196.6Z" fill="#BEEBFD"/>
<path d="M43.8001 198.6H42.3001V193.6C42.3001 192.7 42.2001 192 41.9001 191.5C41.6001 191.1 41.2001 190.8 40.6001 190.8C40.2001 190.8 39.8001 190.9 39.4001 191.1C39.0001 191.3 38.6001 191.6 38.3001 191.9C38.0001 192.2 37.8001 192.6 37.6001 193.1V198.5H36.1001V189.5H37.5001V191.4C37.7001 191 38.1001 190.6 38.4001 190.3C38.8001 190 39.2001 189.8 39.7001 189.6C40.2001 189.4 40.7001 189.3 41.2001 189.3C41.7001 189.3 42.2001 189.4 42.5001 189.6C42.9001 189.8 43.1001 190.1 43.3001 190.4C43.5001 190.7 43.6001 191.1 43.7001 191.6C43.8001 192.1 43.8001 192.6 43.8001 193.1V198.6Z" fill="#BEEBFD"/>
<path d="M60.0998 198.6L54.0998 192.2C53.5998 191.7 53.1998 191.2 52.8998 190.9C52.5998 190.6 52.3998 190.2 52.2998 189.9C52.1998 189.6 52.0998 189.3 52.0998 189C52.0998 188.5 52.1998 188 52.4998 187.6C52.7998 187.2 53.1998 186.9 53.5998 186.6C54.0998 186.4 54.5998 186.2 55.1998 186.2C55.7998 186.2 56.2998 186.3 56.6998 186.5C57.0998 186.7 57.4998 187 57.7998 187.4C58.0998 187.8 58.1998 188.2 58.1998 188.7C58.1998 189.2 58.0998 189.7 57.7998 190.1C57.4998 190.5 57.0998 190.9 56.6998 191.2C56.1998 191.5 55.6998 191.9 55.1998 192.3C54.6998 192.6 54.2998 192.9 53.8998 193.2C53.4998 193.5 53.1998 193.8 52.9998 194.2C52.7998 194.5 52.6998 194.9 52.6998 195.3C52.6998 195.8 52.7998 196.1 53.0998 196.5C53.3998 196.8 53.6998 197.1 54.0998 197.2C54.4998 197.4 54.8998 197.5 55.3998 197.5C55.9998 197.5 56.4998 197.4 56.9998 197.1C57.4998 196.8 57.9998 196.5 58.2998 196C58.6998 195.5 58.9998 195 59.1998 194.3C59.3998 193.7 59.4998 193 59.4998 192.2H60.7998C60.7998 193.1 60.6998 194 60.3998 194.8C60.0998 195.6 59.6998 196.3 59.1998 196.9C58.6998 197.5 58.0998 197.9 57.3998 198.3C56.6998 198.7 55.9998 198.8 55.1998 198.8C54.4998 198.8 53.7998 198.7 53.1998 198.4C52.5998 198.1 52.0998 197.7 51.7998 197.2C51.4998 196.7 51.2998 196.1 51.2998 195.5C51.2998 194.9 51.3998 194.3 51.6998 193.9C51.9998 193.5 52.3998 193 52.7998 192.6C53.1998 192.2 53.6998 191.9 54.1998 191.6C54.6998 191.3 55.1998 191 55.4998 190.7C55.8998 190.4 56.1998 190.2 56.3998 189.9C56.5998 189.6 56.6998 189.3 56.6998 189C56.6998 188.6 56.5998 188.3 56.2998 188C55.9998 187.7 55.5998 187.6 55.1998 187.6C54.8998 187.6 54.4998 187.7 54.2998 187.8C53.9998 187.9 53.7998 188.1 53.6998 188.4C53.5998 188.6 53.4998 188.9 53.4998 189.2C53.4998 189.4 53.4998 189.6 53.5998 189.8C53.6998 190 53.8998 190.2 54.0998 190.5C54.3998 190.8 54.6998 191.2 55.1998 191.7L62.0998 198.9H60.0998V198.6Z" fill="#BEEBFD"/>
<path d="M69 198.6V186.3H73.3C74.6 186.3 75.7 186.6 76.6 187.1C77.5 187.6 78.1 188.4 78.6 189.3C79 190.2 79.3 191.3 79.3 192.4C79.3 193.6 79.1 194.7 78.6 195.7C78.1 196.6 77.4 197.3 76.5 197.8C75.6 198.3 74.6 198.6 73.4 198.6H69ZM77.7 192.4C77.7 191.5 77.5 190.7 77.2 189.9C76.9 189.1 76.4 188.6 75.7 188.2C75.1 187.8 74.3 187.6 73.3 187.6H70.6V197.1H73.3C74.2 197.1 75 196.9 75.7 196.5C76.3 196.1 76.8 195.5 77.2 194.8C77.5 194.1 77.7 193.3 77.7 192.4Z" fill="#BEEBFD"/>
<path d="M81.7002 187.9V186H83.2002V187.9H81.7002ZM81.7002 198.6V189.6H83.2002V198.6H81.7002Z" fill="#BEEBFD"/>
<path d="M89.8001 198.8C89.2001 198.8 88.6001 198.7 88.1001 198.4C87.6001 198.2 87.1001 197.8 86.8001 197.4C86.4001 197 86.1001 196.5 85.9001 195.9C85.7001 195.3 85.6001 194.8 85.6001 194.2C85.6001 193.6 85.7001 193 85.9001 192.4C86.1001 191.8 86.4001 191.3 86.8001 190.9C87.2001 190.5 87.6001 190.1 88.1001 189.9C88.6001 189.7 89.2001 189.5 89.8001 189.5C90.5001 189.5 91.2001 189.7 91.8001 190C92.4001 190.4 92.8001 190.8 93.2001 191.4V189.6H94.5001V198.5C94.5001 199.3 94.3001 200.1 93.9001 200.7C93.5001 201.3 92.9001 201.7 92.2001 202C91.5001 202.3 90.7001 202.5 89.9001 202.5C88.9001 202.5 88.1001 202.3 87.4001 202C86.7001 201.7 86.2001 201.2 85.8001 200.5L86.7001 199.7C87.1001 200.2 87.5001 200.6 88.1001 200.9C88.7001 201.2 89.3001 201.3 89.9001 201.3C90.5001 201.3 91.0001 201.2 91.4001 201C91.8001 200.8 92.2001 200.5 92.5001 200.1C92.8001 199.7 92.9001 199.2 92.9001 198.6V197C92.6001 197.6 92.1001 198 91.5001 198.3C91.0001 198.6 90.4001 198.8 89.8001 198.8ZM90.3001 197.5C90.6001 197.5 90.9001 197.4 91.2001 197.3C91.5001 197.2 91.8001 197 92.0001 196.8C92.3001 196.6 92.5001 196.4 92.6001 196.2C92.7001 196 92.9001 195.7 92.9001 195.5V192.9C92.7001 192.5 92.5001 192.1 92.2001 191.8C91.9001 191.5 91.6001 191.2 91.2001 191.1C90.8001 190.9 90.4001 190.8 90.0001 190.8C89.5001 190.8 89.1001 190.9 88.8001 191.1C88.4001 191.3 88.1001 191.6 87.9001 191.9C87.7001 192.2 87.5001 192.6 87.3001 193C87.2001 193.4 87.1001 193.8 87.1001 194.2C87.1001 194.6 87.2001 195.1 87.3001 195.5C87.5001 195.9 87.7001 196.3 88.0001 196.6C88.3001 196.9 88.6001 197.2 89.0001 197.3C89.4001 197.4 89.8001 197.5 90.3001 197.5Z" fill="#BEEBFD"/>
<path d="M97.5 187.9V186H99V187.9H97.5ZM97.5 198.6V189.6H99V198.6H97.5Z" fill="#BEEBFD"/>
<path d="M106.7 198.2C106.6 198.3 106.4 198.3 106.2 198.4C106 198.5 105.7 198.6 105.4 198.6C105.1 198.7 104.8 198.7 104.5 198.7C104.1 198.7 103.8 198.6 103.5 198.5C103.2 198.4 102.9 198.2 102.8 197.9C102.6 197.6 102.5 197.3 102.5 196.8V190.7H101.3V189.5H102.5V186.5H104V189.5H106V190.7H104V196.3C104 196.6 104.1 196.9 104.3 197C104.5 197.2 104.7 197.2 105 197.2C105.3 197.2 105.6 197.1 105.8 197C106.1 196.9 106.2 196.8 106.3 196.8L106.7 198.2Z" fill="#BEEBFD"/>
<path d="M107.9 196C107.9 195.4 108.1 194.9 108.4 194.5C108.7 194.1 109.2 193.8 109.8 193.5C110.4 193.3 111 193.2 111.8 193.2C112.2 193.2 112.6 193.2 113.1 193.3C113.5 193.4 113.9 193.5 114.3 193.6V192.9C114.3 192.2 114.1 191.7 113.7 191.3C113.3 190.9 112.7 190.7 111.9 190.7C111.4 190.7 110.9 190.8 110.5 191C110 191.2 109.6 191.4 109.1 191.8L108.5 190.7C109.1 190.3 109.7 190 110.3 189.8C110.9 189.6 111.5 189.5 112.1 189.5C113.3 189.5 114.2 189.8 114.8 190.5C115.5 191.1 115.8 192 115.8 193.1V196.9C115.8 197.1 115.8 197.2 115.9 197.3C116 197.4 116.1 197.4 116.3 197.4V198.6C116.1 198.6 116 198.6 115.9 198.7C115.8 198.7 115.7 198.7 115.6 198.7C115.2 198.7 115 198.6 114.8 198.4C114.6 198.2 114.5 198 114.5 197.8V197.2C114.1 197.7 113.6 198.1 113 198.4C112.4 198.7 111.7 198.8 111.1 198.8C110.5 198.8 110 198.7 109.5 198.4C109 198.2 108.7 197.8 108.4 197.4C108 197 107.9 196.5 107.9 196ZM113.8 196.6C113.9 196.4 114 196.3 114.1 196.1C114.2 195.9 114.2 195.8 114.2 195.7V194.6C113.8 194.5 113.5 194.4 113.1 194.3C112.7 194.2 112.3 194.2 111.9 194.2C111.1 194.2 110.5 194.4 110 194.7C109.5 195 109.3 195.4 109.3 195.9C109.3 196.2 109.4 196.5 109.5 196.7C109.7 197 109.9 197.2 110.2 197.4C110.5 197.6 110.9 197.7 111.3 197.7C111.8 197.7 112.2 197.6 112.6 197.4C113.2 197.1 113.5 196.9 113.8 196.6Z" fill="#BEEBFD"/>
<path d="M118.7 186H120.2V196.3C120.2 196.8 120.3 197.1 120.4 197.2C120.5 197.3 120.7 197.4 120.9 197.4C121.1 197.4 121.4 197.4 121.6 197.3C121.8 197.2 122 197.2 122.2 197.1L122.4 198.3C122.1 198.4 121.8 198.5 121.5 198.6C121.2 198.7 120.8 198.7 120.6 198.7C120 198.7 119.5 198.5 119.2 198.2C118.9 197.9 118.7 197.4 118.7 196.8V186Z" fill="#BEEBFD"/>
<path d="M131.6 198.8C130.8 198.8 130.1 198.7 129.5 198.4C128.8 198.2 128.3 197.8 127.8 197.3L128.4 196.2C128.9 196.7 129.4 197 130 197.2C130.6 197.4 131 197.5 131.6 197.5C132.2 197.5 132.7 197.4 133.1 197.2C133.5 197 133.7 196.6 133.7 196.2C133.7 195.9 133.6 195.6 133.4 195.5C133.2 195.3 132.9 195.2 132.5 195.1C132.1 195 131.7 194.9 131.2 194.7C130.6 194.5 130.1 194.3 129.6 194.1C129.2 193.9 128.8 193.6 128.6 193.3C128.4 193 128.3 192.6 128.3 192.1C128.3 191.5 128.4 191 128.7 190.6C129 190.2 129.4 189.9 129.9 189.7C130.4 189.5 131 189.4 131.7 189.4C132.4 189.4 133 189.5 133.5 189.7C134 189.9 134.5 190.2 134.9 190.6L134.2 191.7C133.8 191.3 133.4 191.1 133 190.9C132.6 190.7 132.1 190.6 131.6 190.6C131.3 190.6 131 190.6 130.7 190.7C130.4 190.8 130.2 190.9 130 191.1C129.8 191.3 129.7 191.6 129.7 191.9C129.7 192.2 129.8 192.4 129.9 192.6C130.1 192.8 130.3 192.9 130.6 193C130.9 193.1 131.3 193.2 131.7 193.4C132.4 193.6 133 193.8 133.5 194C134 194.2 134.4 194.4 134.7 194.8C135 195.1 135.1 195.5 135.1 196.1C135.1 196.9 134.8 197.6 134.1 198.1C133.5 198.5 132.7 198.8 131.6 198.8Z" fill="#BEEBFD"/>
<path d="M137.5 187.9V186H139V187.9H137.5ZM137.5 198.6V189.6H139V198.6H137.5Z" fill="#BEEBFD"/>
<path d="M145.6 198.8C145 198.8 144.4 198.7 143.9 198.4C143.4 198.2 142.9 197.8 142.6 197.4C142.2 197 141.9 196.5 141.7 195.9C141.5 195.3 141.4 194.8 141.4 194.2C141.4 193.6 141.5 193 141.7 192.4C141.9 191.8 142.2 191.3 142.6 190.9C143 190.5 143.4 190.1 143.9 189.9C144.4 189.7 145 189.5 145.6 189.5C146.3 189.5 147 189.7 147.6 190C148.2 190.4 148.6 190.8 149 191.4V189.6H150.3V198.5C150.3 199.3 150.1 200.1 149.7 200.7C149.3 201.3 148.7 201.7 148 202C147.3 202.3 146.5 202.5 145.7 202.5C144.7 202.5 143.9 202.3 143.2 202C142.5 201.7 142 201.2 141.6 200.5L142.5 199.7C142.9 200.2 143.3 200.6 143.9 200.9C144.5 201.2 145.1 201.3 145.7 201.3C146.3 201.3 146.8 201.2 147.2 201C147.6 200.8 148 200.5 148.3 200.1C148.6 199.7 148.7 199.2 148.7 198.6V197C148.4 197.6 147.9 198 147.3 198.3C146.8 198.6 146.2 198.8 145.6 198.8ZM146.1 197.5C146.4 197.5 146.7 197.4 147 197.3C147.3 197.2 147.6 197 147.8 196.8C148.1 196.6 148.3 196.4 148.4 196.2C148.5 196 148.7 195.7 148.7 195.5V192.9C148.5 192.5 148.3 192.1 148 191.8C147.7 191.5 147.4 191.2 147 191.1C146.6 190.9 146.2 190.8 145.8 190.8C145.3 190.8 144.9 190.9 144.6 191.1C144.2 191.3 143.9 191.6 143.7 191.9C143.5 192.2 143.3 192.6 143.1 193C143 193.4 142.9 193.8 142.9 194.2C142.9 194.6 143 195.1 143.1 195.5C143.3 195.9 143.5 196.3 143.8 196.6C144.1 196.9 144.4 197.2 144.8 197.3C145.2 197.4 145.6 197.5 146.1 197.5Z" fill="#BEEBFD"/>
<path d="M161.1 198.6H159.6V193.6C159.6 192.7 159.5 192 159.2 191.5C158.9 191.1 158.5 190.8 157.9 190.8C157.5 190.8 157.1 190.9 156.7 191.1C156.3 191.3 155.9 191.6 155.6 191.9C155.3 192.2 155.1 192.6 154.9 193.1V198.5H153.4V189.5H154.8V191.4C155 191 155.4 190.6 155.7 190.3C156.1 190 156.5 189.8 157 189.6C157.5 189.4 158 189.3 158.5 189.3C159 189.3 159.5 189.4 159.8 189.6C160.2 189.8 160.4 190.1 160.6 190.4C160.8 190.7 160.9 191.1 161 191.6C161.1 192.1 161.1 192.6 161.1 193.1V198.6Z" fill="#BEEBFD"/>
<path d="M163.3 196C163.3 195.4 163.5 194.9 163.8 194.5C164.1 194.1 164.6 193.8 165.2 193.5C165.8 193.3 166.4 193.2 167.2 193.2C167.6 193.2 168 193.2 168.5 193.3C168.9 193.4 169.3 193.5 169.7 193.6V192.9C169.7 192.2 169.5 191.7 169.1 191.3C168.7 190.9 168.1 190.7 167.3 190.7C166.8 190.7 166.3 190.8 165.9 191C165.4 191.2 165 191.4 164.5 191.8L163.9 190.7C164.5 190.3 165.1 190 165.7 189.8C166.3 189.6 166.9 189.5 167.5 189.5C168.7 189.5 169.6 189.8 170.2 190.5C170.9 191.1 171.2 192 171.2 193.1V196.9C171.2 197.1 171.2 197.2 171.3 197.3C171.4 197.4 171.5 197.4 171.7 197.4V198.6C171.5 198.6 171.4 198.6 171.3 198.7C171.2 198.7 171.1 198.7 171 198.7C170.6 198.7 170.4 198.6 170.2 198.4C170 198.2 169.9 198 169.9 197.8V197.2C169.5 197.7 169 198.1 168.4 198.4C167.8 198.7 167.1 198.8 166.5 198.8C165.9 198.8 165.4 198.7 164.9 198.4C164.4 198.2 164.1 197.8 163.8 197.4C163.4 197 163.3 196.5 163.3 196ZM169.2 196.6C169.3 196.4 169.4 196.3 169.5 196.1C169.6 195.9 169.6 195.8 169.6 195.7V194.6C169.2 194.5 168.9 194.4 168.5 194.3C168.1 194.2 167.7 194.2 167.3 194.2C166.5 194.2 165.9 194.4 165.4 194.7C164.9 195 164.7 195.4 164.7 195.9C164.7 196.2 164.8 196.5 164.9 196.7C165.1 197 165.3 197.2 165.6 197.4C165.9 197.6 166.3 197.7 166.7 197.7C167.2 197.7 167.6 197.6 168 197.4C168.6 197.1 168.9 196.9 169.2 196.6Z" fill="#BEEBFD"/>
<path d="M177.7 198.8C177.1 198.8 176.5 198.7 176 198.4C175.5 198.2 175 197.8 174.7 197.4C174.3 197 174 196.5 173.8 195.9C173.6 195.3 173.5 194.8 173.5 194.2C173.5 193.6 173.6 193 173.8 192.4C174 191.8 174.3 191.3 174.7 190.9C175.1 190.5 175.5 190.1 176 189.9C176.5 189.7 177.1 189.5 177.7 189.5C178.4 189.5 179.1 189.7 179.7 190C180.3 190.4 180.7 190.8 181.1 191.4V189.6H182.4V198.5C182.4 199.3 182.2 200.1 181.8 200.7C181.4 201.3 180.8 201.7 180.1 202C179.4 202.3 178.6 202.5 177.8 202.5C176.8 202.5 176 202.3 175.3 202C174.6 201.7 174.1 201.2 173.7 200.5L174.6 199.7C175 200.2 175.4 200.6 176 200.9C176.6 201.2 177.2 201.3 177.8 201.3C178.4 201.3 178.9 201.2 179.3 201C179.7 200.8 180.1 200.5 180.4 200.1C180.7 199.7 180.8 199.2 180.8 198.6V197C180.5 197.6 180 198 179.4 198.3C179 198.6 178.4 198.8 177.7 198.8ZM178.2 197.5C178.5 197.5 178.8 197.4 179.1 197.3C179.4 197.2 179.7 197 179.9 196.8C180.2 196.6 180.4 196.4 180.5 196.2C180.6 196 180.8 195.7 180.8 195.5V192.9C180.6 192.5 180.4 192.1 180.1 191.8C179.8 191.5 179.5 191.2 179.1 191.1C178.7 190.9 178.3 190.8 177.9 190.8C177.4 190.8 177 190.9 176.7 191.1C176.3 191.3 176 191.6 175.8 191.9C175.6 192.2 175.4 192.6 175.2 193C175.1 193.4 175 193.8 175 194.2C175 194.6 175.1 195.1 175.2 195.5C175.4 195.9 175.6 196.3 175.9 196.6C176.2 196.9 176.5 197.2 176.9 197.3C177.3 197.4 177.8 197.5 178.2 197.5Z" fill="#BEEBFD"/>
<path d="M189.4 198.8C188.7 198.8 188.1 198.7 187.5 198.4C186.9 198.2 186.5 197.8 186 197.4C185.6 197 185.3 196.5 185 195.9C184.8 195.3 184.7 194.7 184.7 194.1C184.7 193.3 184.9 192.5 185.3 191.8C185.7 191.1 186.2 190.5 186.9 190.1C187.6 189.7 188.4 189.5 189.3 189.5C190.2 189.5 191 189.7 191.7 190.1C192.4 190.5 192.9 191.1 193.3 191.8C193.7 192.5 193.9 193.2 193.9 194C193.9 194.1 193.9 194.2 193.9 194.3C193.9 194.4 193.9 194.5 193.9 194.5H186.4C186.4 195.1 186.6 195.6 186.9 196C187.2 196.5 187.5 196.8 188 197.1C188.4 197.4 188.9 197.5 189.5 197.5C190.1 197.5 190.6 197.4 191.1 197.1C191.6 196.8 191.9 196.5 192.1 196L193.4 196.4C193.2 196.8 192.9 197.2 192.5 197.6C192.1 197.9 191.7 198.2 191.1 198.4C190.5 198.6 190 198.8 189.4 198.8ZM186.4 193.6H192.6C192.6 193 192.4 192.5 192.1 192.1C191.8 191.7 191.4 191.3 191 191.1C190.5 190.8 190.1 190.7 189.5 190.7C189 190.7 188.5 190.8 188 191.1C187.6 191.4 187.2 191.7 186.9 192.1C186.6 192.5 186.4 193 186.4 193.6Z" fill="#BEEBFD"/>
<path d="M204.2 198.8C203.4 198.8 202.7 198.7 202.1 198.4C201.4 198.2 200.9 197.8 200.4 197.3L201 196.2C201.5 196.7 202 197 202.6 197.2C203.2 197.4 203.6 197.5 204.2 197.5C204.8 197.5 205.3 197.4 205.7 197.2C206.1 197 206.3 196.6 206.3 196.2C206.3 195.9 206.2 195.6 206 195.5C205.8 195.3 205.5 195.2 205.1 195.1C204.7 195 204.3 194.9 203.8 194.7C203.2 194.5 202.7 194.3 202.2 194.1C201.8 193.9 201.4 193.6 201.2 193.3C201 193 200.9 192.6 200.9 192.1C200.9 191.5 201 191 201.3 190.6C201.6 190.2 202 189.9 202.5 189.7C203 189.5 203.6 189.4 204.3 189.4C205 189.4 205.6 189.5 206.1 189.7C206.6 189.9 207.1 190.2 207.5 190.6L206.8 191.7C206.4 191.3 206 191.1 205.6 190.9C205.2 190.7 204.7 190.6 204.2 190.6C203.9 190.6 203.6 190.6 203.3 190.7C203 190.8 202.8 190.9 202.6 191.1C202.4 191.3 202.3 191.6 202.3 191.9C202.3 192.2 202.4 192.4 202.5 192.6C202.7 192.8 202.9 192.9 203.2 193C203.5 193.1 203.9 193.2 204.3 193.4C205 193.6 205.6 193.8 206.1 194C206.6 194.2 207 194.4 207.3 194.8C207.6 195.1 207.7 195.5 207.7 196.1C207.7 196.9 207.4 197.6 206.7 198.1C206.1 198.5 205.2 198.8 204.2 198.8Z" fill="#BEEBFD"/>
<path d="M214 198.8C213.3 198.8 212.7 198.7 212.2 198.4C211.6 198.2 211.2 197.8 210.8 197.4C210.4 197 210.1 196.5 209.9 195.9C209.7 195.3 209.6 194.8 209.6 194.1C209.6 193.5 209.7 192.9 209.9 192.3C210.1 191.7 210.4 191.2 210.8 190.8C211.2 190.4 211.7 190 212.2 189.8C212.8 189.6 213.4 189.4 214 189.4C214.7 189.4 215.3 189.5 215.9 189.8C216.5 190 216.9 190.4 217.3 190.8C217.7 191.2 218 191.7 218.2 192.3C218.4 192.9 218.5 193.5 218.5 194.1C218.5 194.7 218.4 195.3 218.2 195.9C218 196.5 217.7 197 217.3 197.4C216.9 197.8 216.4 198.2 215.9 198.4C215.3 198.6 214.6 198.8 214 198.8ZM211 194.1C211 194.7 211.1 195.3 211.4 195.8C211.7 196.3 212 196.7 212.5 197C212.9 197.3 213.5 197.4 214 197.4C214.6 197.4 215.1 197.3 215.5 197C216 196.7 216.3 196.3 216.6 195.8C216.9 195.3 217 194.7 217 194.1C217 193.5 216.9 192.9 216.6 192.4C216.3 191.9 216 191.5 215.5 191.2C215 190.9 214.5 190.8 214 190.8C213.4 190.8 212.9 191 212.5 191.3C212 191.6 211.7 192 211.4 192.5C211.1 192.9 211 193.5 211 194.1Z" fill="#BEEBFD"/>
<path d="M220.9 186H222.4V196.3C222.4 196.8 222.5 197.1 222.6 197.2C222.7 197.3 222.9 197.4 223.1 197.4C223.3 197.4 223.6 197.4 223.8 197.3C224 197.2 224.2 197.2 224.4 197.1L224.6 198.3C224.3 198.4 224 198.5 223.7 198.6C223.4 198.7 223 198.7 222.8 198.7C222.2 198.7 221.7 198.5 221.4 198.2C221.1 197.9 220.9 197.4 220.9 196.8V186Z" fill="#BEEBFD"/>
<path d="M226.3 195V189.6H227.8V194.7C227.8 195.6 228 196.3 228.3 196.8C228.6 197.3 229.1 197.5 229.7 197.5C230.1 197.5 230.5 197.4 230.9 197.2C231.3 197 231.6 196.8 231.9 196.4C232.2 196.1 232.5 195.7 232.6 195.2V189.6H234.1V196.8C234.1 197 234.1 197.1 234.2 197.2C234.3 197.3 234.4 197.3 234.6 197.3V198.5C234.4 198.5 234.3 198.5 234.2 198.5C234.1 198.5 234 198.5 233.9 198.5C233.6 198.5 233.4 198.4 233.2 198.2C233 198 232.9 197.8 232.9 197.5V196.5C232.5 197.2 232 197.7 231.3 198C230.6 198.4 229.9 198.5 229.1 198.5C228.2 198.5 227.4 198.2 227 197.5C226.5 197.2 226.3 196.2 226.3 195Z" fill="#BEEBFD"/>
<path d="M241.9 198.2C241.8 198.3 241.6 198.3 241.4 198.4C241.2 198.5 240.9 198.6 240.6 198.6C240.3 198.7 240 198.7 239.7 198.7C239.3 198.7 239 198.6 238.7 198.5C238.4 198.4 238.1 198.2 238 197.9C237.8 197.6 237.7 197.3 237.7 196.8V190.7H236.5V189.5H237.7V186.5H239.2V189.5H241.2V190.7H239.2V196.3C239.2 196.6 239.3 196.9 239.5 197C239.7 197.2 239.9 197.2 240.2 197.2C240.5 197.2 240.8 197.1 241 197C241.3 196.9 241.4 196.8 241.5 196.8L241.9 198.2Z" fill="#BEEBFD"/>
<path d="M243.9 187.9V186H245.4V187.9H243.9ZM243.9 198.6V189.6H245.4V198.6H243.9Z" fill="#BEEBFD"/>
<path d="M252.3 198.8C251.6 198.8 251 198.7 250.5 198.4C249.9 198.2 249.5 197.8 249.1 197.4C248.7 197 248.4 196.5 248.2 195.9C248 195.3 247.9 194.8 247.9 194.1C247.9 193.5 248 192.9 248.2 192.3C248.4 191.7 248.7 191.2 249.1 190.8C249.5 190.4 250 190 250.5 189.8C251.1 189.6 251.7 189.4 252.3 189.4C253 189.4 253.6 189.5 254.2 189.8C254.8 190 255.2 190.4 255.6 190.8C256 191.2 256.3 191.7 256.5 192.3C256.7 192.9 256.8 193.5 256.8 194.1C256.8 194.7 256.7 195.3 256.5 195.9C256.3 196.5 256 197 255.6 197.4C255.2 197.8 254.7 198.2 254.2 198.4C253.6 198.6 253 198.8 252.3 198.8ZM249.3 194.1C249.3 194.7 249.4 195.3 249.7 195.8C250 196.3 250.3 196.7 250.8 197C251.2 197.3 251.8 197.4 252.3 197.4C252.9 197.4 253.4 197.3 253.8 197C254.3 196.7 254.6 196.3 254.9 195.8C255.2 195.3 255.3 194.7 255.3 194.1C255.3 193.5 255.2 192.9 254.9 192.4C254.6 191.9 254.3 191.5 253.8 191.2C253.3 190.9 252.8 190.8 252.3 190.8C251.7 190.8 251.2 191 250.8 191.3C250.3 191.6 250 192 249.7 192.5C249.5 192.9 249.3 193.5 249.3 194.1Z" fill="#BEEBFD"/>
<path d="M267.1 198.6H265.6V193.6C265.6 192.7 265.5 192 265.2 191.5C264.9 191.1 264.5 190.8 263.9 190.8C263.5 190.8 263.1 190.9 262.7 191.1C262.3 191.3 261.9 191.6 261.6 191.9C261.3 192.2 261.1 192.6 260.9 193.1V198.5H259.4V189.5H260.8V191.4C261 191 261.4 190.6 261.7 190.3C262.1 190 262.5 189.8 263 189.6C263.5 189.4 264 189.3 264.5 189.3C265 189.3 265.5 189.4 265.8 189.6C266.2 189.8 266.4 190.1 266.6 190.4C266.8 190.7 266.9 191.1 267 191.6C267.1 192.1 267.1 192.6 267.1 193.1V198.6Z" fill="#BEEBFD"/>
<path d="M1.75195 182V142.469H17.5645V150.105H9.79297V157.81H17.25V165.244H9.79297V174.296H18.0811V182H1.75195ZM24.3477 182L19.4736 142.446H26.998L29.8955 169.354L32.4785 142.446H40.0029L35.1289 182H24.3477ZM42.3164 182V142.469H58.1289V150.105H50.3574V157.81H57.8145V165.244H50.3574V174.296H58.6455V182H42.3164ZM61.2734 182V142.469H69.4043L73.043 161.403V142.469H80.6797V182H72.9531L69 162.234V182H61.2734ZM87.5752 182V150.061H82.8809V142.469H100.176V150.061H95.4814V182H87.5752Z" fill="white"/>
<path d="M123.794 155.896C123.794 156.601 123.61 157.215 123.242 157.736C122.874 158.257 122.46 158.671 122 158.978C121.233 158.457 120.359 157.997 119.378 157.598C118.427 157.199 117.293 157 115.974 157C114.349 157 112.938 157.353 111.742 158.058C110.546 158.763 109.626 159.791 108.982 161.14C108.369 162.489 108.062 164.13 108.062 166.062C108.062 169.006 108.798 171.245 110.27 172.778C111.742 174.311 113.766 175.078 116.342 175.078C117.661 175.078 118.795 174.894 119.746 174.526C120.697 174.158 121.571 173.744 122.368 173.284C122.828 173.621 123.196 174.066 123.472 174.618C123.779 175.139 123.932 175.753 123.932 176.458C123.932 177.071 123.763 177.639 123.426 178.16C123.119 178.681 122.583 179.126 121.816 179.494C121.233 179.801 120.405 180.092 119.332 180.368C118.259 180.644 116.955 180.782 115.422 180.782C112.723 180.782 110.255 180.261 108.016 179.218C105.808 178.145 104.06 176.535 102.772 174.388C101.484 172.211 100.84 169.435 100.84 166.062C100.84 162.873 101.469 160.189 102.726 158.012C104.014 155.804 105.731 154.133 107.878 152.998C110.025 151.863 112.401 151.296 115.008 151.296C116.817 151.296 118.381 151.511 119.7 151.94C121.019 152.339 122.031 152.891 122.736 153.596C123.441 154.271 123.794 155.037 123.794 155.896ZM127.345 160.542H134.337V179.954C134.061 180.046 133.616 180.123 133.003 180.184C132.39 180.276 131.761 180.322 131.117 180.322C129.737 180.322 128.756 180.077 128.173 179.586C127.621 179.095 127.345 178.237 127.345 177.01V160.542ZM134.337 169.374H127.345V152.032C127.652 151.971 128.112 151.894 128.725 151.802C129.369 151.71 129.982 151.664 130.565 151.664C131.914 151.664 132.88 151.894 133.463 152.354C134.046 152.814 134.337 153.688 134.337 154.976V169.374ZM144.503 160.542H151.541V179.954C151.234 180.046 150.774 180.123 150.161 180.184C149.548 180.276 148.919 180.322 148.275 180.322C146.895 180.322 145.914 180.077 145.331 179.586C144.779 179.095 144.503 178.237 144.503 177.01V160.542ZM151.541 169.374H144.503V152.032C144.84 151.971 145.316 151.894 145.929 151.802C146.542 151.71 147.156 151.664 147.769 151.664C149.088 151.664 150.038 151.909 150.621 152.4C151.234 152.86 151.541 153.734 151.541 155.022V169.374ZM148.505 168.776H130.519V163.21H148.505V168.776ZM156.692 160.496H163.5V179.724C163.224 179.785 162.794 179.862 162.212 179.954C161.66 180.046 161.062 180.092 160.418 180.092C159.283 180.092 158.378 179.755 157.704 179.08C157.029 178.405 156.692 177.501 156.692 176.366V160.496ZM163.5 171.628H156.692V155.85C156.692 154.685 157.029 153.78 157.704 153.136C158.378 152.461 159.283 152.124 160.418 152.124C161.062 152.124 161.66 152.17 162.212 152.262C162.794 152.354 163.224 152.431 163.5 152.492V171.628ZM160.418 168.546V163.026H174.31C174.494 163.333 174.662 163.716 174.816 164.176C174.969 164.636 175.046 165.142 175.046 165.694C175.046 166.675 174.816 167.396 174.356 167.856C173.926 168.316 173.344 168.546 172.608 168.546H160.418ZM160.418 180.092V174.526H175.828C176.012 174.802 176.18 175.185 176.334 175.676C176.487 176.167 176.564 176.688 176.564 177.24C176.564 178.221 176.334 178.942 175.874 179.402C175.444 179.862 174.862 180.092 174.126 180.092H160.418ZM160.418 157.644V152.124H175.598C175.812 152.4 175.981 152.768 176.104 153.228C176.257 153.688 176.334 154.194 176.334 154.746C176.334 155.727 176.119 156.463 175.69 156.954C175.26 157.414 174.662 157.644 173.896 157.644H160.418ZM201.592 155.896C201.592 156.601 201.408 157.215 201.04 157.736C200.672 158.257 200.258 158.671 199.798 158.978C199.031 158.457 198.157 157.997 197.176 157.598C196.225 157.199 195.09 157 193.772 157C192.146 157 190.736 157.353 189.54 158.058C188.344 158.763 187.424 159.791 186.78 161.14C186.166 162.489 185.86 164.13 185.86 166.062C185.86 169.006 186.596 171.245 188.068 172.778C189.54 174.311 191.564 175.078 194.14 175.078C195.458 175.078 196.593 174.894 197.544 174.526C198.494 174.158 199.368 173.744 200.166 173.284C200.626 173.621 200.994 174.066 201.27 174.618C201.576 175.139 201.73 175.753 201.73 176.458C201.73 177.071 201.561 177.639 201.224 178.16C200.917 178.681 200.38 179.126 199.614 179.494C199.031 179.801 198.203 180.092 197.13 180.368C196.056 180.644 194.753 180.782 193.22 180.782C190.521 180.782 188.052 180.261 185.814 179.218C183.606 178.145 181.858 176.535 180.57 174.388C179.282 172.211 178.638 169.435 178.638 166.062C178.638 162.873 179.266 160.189 180.524 158.012C181.812 155.804 183.529 154.133 185.676 152.998C187.822 151.863 190.199 151.296 192.806 151.296C194.615 151.296 196.179 151.511 197.498 151.94C198.816 152.339 199.828 152.891 200.534 153.596C201.239 154.271 201.592 155.037 201.592 155.896ZM208.96 165.188L216.78 164.268C219.356 166.997 221.656 169.435 223.68 171.582C225.704 173.729 227.345 175.446 228.602 176.734C228.602 177.899 228.219 178.819 227.452 179.494C226.686 180.138 225.796 180.46 224.784 180.46C223.68 180.46 222.776 180.184 222.07 179.632C221.365 179.08 220.69 178.436 220.046 177.7L208.96 165.188ZM216.964 167.626L208.04 168.04L222.484 151.848C224.232 151.848 225.505 152.201 226.302 152.906C227.1 153.581 227.498 154.378 227.498 155.298C227.498 156.003 227.314 156.678 226.946 157.322C226.609 157.935 226.042 158.61 225.244 159.346L216.964 167.626ZM205.142 160.496H212.134V179.954C211.858 180.046 211.414 180.138 210.8 180.23C210.187 180.322 209.558 180.368 208.914 180.368C207.534 180.368 206.553 180.123 205.97 179.632C205.418 179.111 205.142 178.252 205.142 177.056V160.496ZM212.134 169.328H205.142V152.032C205.449 151.971 205.909 151.894 206.522 151.802C207.166 151.71 207.78 151.664 208.362 151.664C209.712 151.664 210.678 151.894 211.26 152.354C211.843 152.814 212.134 153.688 212.134 154.976V169.328ZM231.479 160.542H238.471V179.954C238.195 180.046 237.751 180.123 237.137 180.184C236.524 180.276 235.895 180.322 235.251 180.322C233.871 180.322 232.89 180.077 232.307 179.586C231.755 179.095 231.479 178.237 231.479 177.01V160.542ZM238.471 169.374H231.479V152.032C231.786 151.971 232.246 151.894 232.859 151.802C233.503 151.71 234.132 151.664 234.745 151.664C236.064 151.664 237.015 151.894 237.597 152.354C238.18 152.814 238.471 153.688 238.471 154.976V169.374ZM243.666 160.082L250.014 159.99C250.136 161.309 250.228 162.612 250.29 163.9C250.351 165.188 250.382 166.43 250.382 167.626C250.412 168.822 250.428 169.987 250.428 171.122V180C250.152 180.061 249.707 180.123 249.094 180.184C248.511 180.276 247.913 180.322 247.3 180.322C245.95 180.322 245 180.092 244.448 179.632C243.926 179.172 243.666 178.344 243.666 177.148V160.082ZM268.184 171.904L261.79 171.95C261.575 169.711 261.452 167.58 261.422 165.556C261.391 163.532 261.376 161.6 261.376 159.76V152.032C261.682 151.971 262.127 151.894 262.71 151.802C263.292 151.71 263.906 151.664 264.55 151.664C265.868 151.664 266.804 151.909 267.356 152.4C267.908 152.86 268.184 153.673 268.184 154.838V171.904ZM268.184 169.696V179.126C267.785 179.494 267.218 179.785 266.482 180C265.776 180.245 264.933 180.368 263.952 180.368C262.909 180.368 261.928 180.199 261.008 179.862C260.118 179.525 259.382 178.773 258.8 177.608L253.234 167.028C252.896 166.353 252.559 165.679 252.222 165.004C251.915 164.329 251.608 163.655 251.302 162.98C250.995 162.275 250.688 161.569 250.382 160.864L243.666 162.382V153.32C244.034 152.799 244.601 152.4 245.368 152.124C246.165 151.848 247.024 151.71 247.944 151.71C248.956 151.71 249.906 151.879 250.796 152.216C251.716 152.553 252.467 153.289 253.05 154.424L258.662 165.05C258.999 165.694 259.336 166.369 259.674 167.074C260.011 167.749 260.333 168.423 260.64 169.098C260.946 169.773 261.238 170.463 261.514 171.168L268.184 169.696Z" fill="white"/>
</svg>
