<svg width="141" height="49" viewBox="0 0 141 49" fill="none" xmlns="http://www.w3.org/2000/svg">
<path d="M13.5088 18.7109L22.5148 24.0833V33.8092L13.5088 28.3442V18.7109Z" fill="white"/>
<path d="M31.5211 18.7109L22.5151 24.0833V33.8092L31.5211 28.3442V18.7109Z" fill="#6DCFF6"/>
<path d="M13.5088 18.7111L22.5148 24.0835L31.5208 18.7111L22.5148 13.2461L13.5088 18.7111Z" fill="#B9E5FB"/>
<path d="M22.5151 49.0004L42.3095 37.2367V37.144L33.3973 31.8643L22.5151 38.2556L11.7267 31.8643L2.7207 37.144V37.2367L22.5151 49.0004Z" fill="white"/>
<path d="M0 10.7448L20.3573 0H20.4511V10.3743L9.28743 16.2098V28.7146L0.0938124 33.5312H0V10.7448Z" fill="#6DCFF6"/>
<path d="M45.0297 10.7448L24.6724 0L24.5786 10.3743L35.7423 16.2098V28.7146L45.0297 33.5312H45.1235L45.0297 10.7448Z" fill="#B9E5FB"/>
<path d="M52.7227 13.987H57.4133L62.4791 24.3613H63.2296L68.2955 13.987H72.9861L66.1378 27.7885H59.571L52.7227 13.987ZM73.7366 13.987H81.2416L88.559 24.2687H89.028L88.9342 13.987H93.2496V27.7885H85.8384L78.4272 17.4142H77.9582L78.052 27.6959H73.7366V13.987ZM95.2197 27.8812V13.987H105.351C107.134 13.8944 108.822 13.987 110.605 14.2649C111.918 14.4502 112.95 15.3764 113.325 16.5806C113.607 17.8774 113.795 19.2668 113.701 20.6562C113.701 22.7866 113.513 24.2687 113.232 25.195C112.856 26.3991 111.918 27.2328 110.699 27.418C108.916 27.6959 107.134 27.7885 105.351 27.7885L95.2197 27.8812ZM99.3474 24.3613H105.258C107.228 24.3613 108.353 24.176 108.729 23.8982C109.104 23.5277 109.385 22.6014 109.385 21.0267C109.385 19.452 109.198 18.5258 108.822 18.0626C108.541 17.7847 107.978 17.5995 107.04 17.5069H99.2536V24.3613H99.3474ZM128.617 22.5088H132.838C132.838 23.1571 132.838 23.6203 132.838 23.8055C132.838 24.6392 132.745 25.4728 132.369 26.3065C131.9 27.1401 130.775 27.6959 128.898 27.9738C128.242 28.0664 126.928 28.0664 124.864 28.0664C122.613 28.0664 121.3 28.0664 120.643 28.0664C118.673 27.9738 117.266 27.6959 116.609 27.3254C115.671 26.8622 115.108 25.8433 115.014 24.4539C114.92 23.8055 114.92 22.694 114.92 21.0267C114.92 18.3405 115.108 16.5806 115.389 15.9322C116.046 14.5428 118.11 13.8944 121.769 13.8018C121.3 13.8018 121.018 13.8018 120.924 13.8018C120.924 13.8018 122.238 13.8018 124.958 13.8018C128.054 13.8018 130.024 13.987 130.868 14.3575C131.525 14.6354 132.088 15.2838 132.369 16.0248C132.557 16.7658 132.651 17.5069 132.651 18.2479C132.651 18.3405 132.651 18.5258 132.651 18.8963H128.429C128.429 18.5258 128.429 18.2479 128.429 18.1553C128.429 17.97 128.335 17.6921 128.148 17.5069C127.866 17.229 126.459 17.1364 123.926 17.1364C121.675 17.1364 120.455 17.3216 120.08 17.5995C119.611 17.97 119.423 19.0815 119.423 20.9341C119.423 21.7677 119.423 22.3235 119.423 22.6014C119.423 23.1571 119.611 23.7129 119.986 24.0834C120.455 24.3613 121.769 24.5466 123.926 24.5466H126.178C126.834 24.6392 127.491 24.4539 128.148 24.176C128.429 23.9908 128.617 23.435 128.617 22.5088Z" fill="white"/>
<path d="M61.2596 35.0131V31.4933H59.2896V31.0301H63.7925V31.4933H61.8225V35.0131H61.2596ZM64.1678 33.9016V33.3458C64.074 32.9753 64.2616 32.6048 64.6369 32.4195C64.9183 32.2343 65.2935 32.2343 65.575 32.2343H66.3255C66.7007 32.2343 67.076 32.3269 67.3574 32.4195C67.6389 32.6974 67.8265 33.0679 67.7327 33.4384V33.7163H64.6369V33.9016C64.6369 34.1795 64.7307 34.3647 64.9183 34.55C65.1997 34.6426 65.4812 34.7352 65.7626 34.7352H66.4193C66.6069 34.7352 66.8884 34.7352 67.076 34.6426C67.2636 34.55 67.2636 34.3647 67.2636 34.2721H67.7327V34.3647C67.7327 34.6426 67.6389 34.9205 67.3574 35.0131C66.9822 35.1057 66.7007 35.1984 66.3255 35.1984H65.4812C65.1997 35.1984 64.8245 35.1984 64.543 35.0131C64.2616 34.6426 64.1678 34.2721 64.1678 33.9016ZM67.3574 33.3458V33.1606C67.3574 32.79 67.076 32.6048 66.3255 32.6048H65.6688C65.3874 32.6048 65.1059 32.6048 64.9183 32.7901C64.7307 32.9753 64.7307 33.1606 64.7307 33.4384H67.3574V33.3458ZM68.3894 33.9016V33.3458C68.3894 32.9753 68.4832 32.6048 68.8584 32.4195C69.1399 32.2343 69.5151 32.2343 69.7965 32.2343H70.547C71.3913 32.2343 71.7666 32.5122 71.7666 33.1606V33.2532H71.2975V33.1606C71.2975 32.9753 71.2037 32.79 71.1099 32.6974C70.9223 32.6048 70.7347 32.6048 70.547 32.6048H69.7027C69.5151 32.6048 69.3275 32.6048 69.1398 32.6974C68.9522 32.8827 68.8584 33.0679 68.8584 33.3458V33.9016C68.8584 34.1795 68.9522 34.3647 69.1398 34.55C69.3275 34.6426 69.6089 34.7352 69.7965 34.7352H70.6409C71.2037 34.7352 71.4852 34.55 71.4852 34.1795V34.0868H71.9542V34.1795C71.9542 34.4573 71.8604 34.7352 71.6728 34.9205C71.3913 35.1057 71.0161 35.1984 70.7347 35.1057H69.7027C68.7646 35.1057 68.3894 34.6426 68.3894 33.9016ZM72.6109 35.0131V31.0301H73.08V32.6974C73.1738 32.5122 73.2676 32.3269 73.4552 32.2343C73.6428 32.1417 73.9243 32.1417 74.2057 32.1417H74.8624C75.6129 32.1417 76.082 32.4195 76.082 33.0679V34.9205H75.6129V33.1606C75.6129 32.9753 75.6129 32.79 75.4253 32.6974C75.1438 32.5122 74.8624 32.5122 74.581 32.5122H74.4872C74.1119 32.5122 73.7367 32.5122 73.3614 32.6974C73.1738 32.8827 73.08 33.1606 73.08 33.3458V34.9205L72.6109 35.0131ZM77.0201 35.0131V32.2343H77.4891V32.6974C77.583 32.5122 77.6768 32.3269 77.8644 32.2343C78.052 32.1417 78.3335 32.1417 78.6149 32.1417H79.3654C80.1159 32.1417 80.4911 32.4195 80.4911 33.0679V34.9205H80.0221V33.1606C80.0221 32.9753 80.0221 32.79 79.8345 32.6974C79.553 32.5122 79.2716 32.5122 78.9901 32.5122H78.8025C78.4273 32.5122 78.052 32.5122 77.6768 32.6974C77.4892 32.8827 77.3953 33.1606 77.3953 33.3458V34.9205L77.0201 35.0131ZM81.2416 33.9016V33.3458C81.2416 32.9753 81.3355 32.6048 81.7107 32.4195C82.086 32.2343 82.4612 32.1417 82.8365 32.2343H83.4931C83.8684 32.2343 84.2436 32.3269 84.6189 32.4195C84.9003 32.6048 85.0879 32.9753 85.0879 33.3458V33.9942C85.0879 34.3647 84.9941 34.7352 84.6189 34.9205C84.2436 35.1057 83.8684 35.1984 83.4931 35.1057H82.8365C82.4612 35.1057 82.086 35.0131 81.7107 34.9205C81.4293 34.6426 81.2416 34.2721 81.2416 33.9016ZM84.6189 33.9016V33.3458C84.6189 33.0679 84.5251 32.8827 84.3375 32.6974C84.1498 32.6048 83.8684 32.5122 83.6808 32.5122H82.7426C82.555 32.5122 82.2736 32.5122 82.086 32.6974C81.8983 32.8827 81.8045 33.0679 81.8045 33.3458V33.9016C81.8045 34.1795 81.8983 34.3647 82.086 34.55C82.2736 34.6426 82.555 34.7352 82.7426 34.7352H83.6808C83.9622 34.7352 84.1498 34.7352 84.3375 34.55C84.5251 34.3647 84.6189 34.1795 84.6189 33.9016ZM85.9323 35.0131V31.0301H86.4013V35.0131H85.9323ZM87.2456 33.9016V33.3458C87.2456 32.9753 87.3395 32.6048 87.7147 32.4195C88.0899 32.2343 88.4652 32.1417 88.8404 32.2343H89.4971C89.8724 32.2343 90.2476 32.3269 90.6229 32.4195C90.9043 32.6048 91.0919 32.9753 91.0919 33.3458V33.9942C91.0919 34.3647 90.9981 34.7352 90.6229 34.9205C90.2476 35.1057 89.8724 35.1984 89.4971 35.1057H88.8404C88.4652 35.1057 88.0899 35.0131 87.7147 34.9205C87.4333 34.6426 87.2456 34.2721 87.2456 33.9016ZM90.6229 33.9016V33.3458C90.6229 33.0679 90.5291 32.8827 90.3414 32.6974C90.1538 32.6048 89.8724 32.5122 89.6848 32.5122H88.7466C88.559 32.5122 88.2776 32.5122 88.09 32.6974C87.9023 32.8827 87.8085 33.0679 87.8085 33.3458V33.9016C87.8085 34.1795 87.9023 34.3647 88.09 34.55C88.2776 34.6426 88.559 34.7352 88.7466 34.7352H89.6848C89.8724 34.7352 90.1538 34.7352 90.3414 34.55C90.5291 34.3647 90.6229 34.1795 90.6229 33.9016ZM95.3135 32.2343V35.0131C95.3135 35.6615 94.8444 36.032 94.0001 36.032H92.9682C92.6868 36.032 92.3115 35.9394 92.1239 35.7541C91.9363 35.5689 91.8424 35.3836 91.9363 35.1984V35.1057H92.4053V35.1984C92.4053 35.4763 92.6868 35.6615 93.2496 35.6615H93.7187C94.0939 35.6615 94.3754 35.6615 94.7506 35.5689C94.9383 35.4763 95.0321 35.291 95.0321 34.9205V34.55C95.0321 34.6426 94.8444 34.8279 94.7506 34.8279C94.563 34.9205 94.2816 34.9205 94.0939 34.9205H92.8744C92.1239 34.9205 91.6548 34.55 91.6548 33.809V33.3458C91.6548 32.6048 92.0301 32.2343 92.9682 32.2343H94.0001C94.3754 32.1417 94.7506 32.4195 94.8444 32.7901V32.3269L95.3135 32.2343ZM94.8444 33.7163V33.3458C94.8444 33.1606 94.8444 32.8827 94.6568 32.6974C94.4692 32.5122 94.1878 32.4195 94.0001 32.5122H93.062C92.4991 32.5122 92.2177 32.6974 92.2177 33.0679V33.5311C92.2177 33.809 92.2177 33.9942 92.4053 34.1795C92.5929 34.2721 92.7806 34.3647 93.062 34.3647H94.0001C94.563 34.55 94.8444 34.2721 94.8444 33.7163ZM96.3454 36.032V35.6615C96.6269 35.6615 96.9083 35.6615 97.1897 35.5689C97.3774 35.4763 97.4712 35.291 97.565 35.1057H97.4712L95.8764 32.3269H96.4393L97.8464 34.8279L99.066 32.3269H99.5351L97.9403 35.4763C97.8464 35.7541 97.6588 35.9394 97.4712 36.032C97.0021 36.032 96.7207 36.032 96.3454 36.032ZM107.884 35.0131L107.134 34.6426C106.946 34.9205 106.477 35.1057 105.82 35.1057H103.85C103.475 35.1057 103.006 35.0131 102.725 34.8279C102.349 34.2721 102.349 33.6237 102.631 33.0679C102.818 32.8827 103.1 32.7901 103.381 32.7901C103.288 32.6974 103.1 32.6048 103.006 32.5122C102.912 32.3269 102.912 32.1417 102.912 31.9564C102.912 31.4006 103.194 31.1228 103.757 31.1228H105.727C106.383 31.1228 106.759 31.4006 106.759 32.049V32.4195H106.29V32.1417C106.29 31.8638 106.102 31.6785 105.727 31.6785H103.944C103.757 31.6785 103.663 31.6785 103.569 31.7711C103.475 31.8638 103.475 31.9564 103.475 32.049C103.475 32.1417 103.475 32.2343 103.475 32.3269C103.475 32.4195 103.569 32.5122 103.663 32.5122L106.759 34.0868V33.2532H107.228V34.0868C107.228 34.1795 107.228 34.2721 107.228 34.3647L108.072 34.8279L107.884 35.0131ZM106.665 34.3647L103.85 32.8827H103.663C103.569 32.8827 103.381 32.8827 103.288 32.9753C103.1 33.0679 103.006 33.3458 103.006 33.5311V33.809C103.006 33.9942 103.006 34.1795 103.194 34.3647C103.381 34.55 103.663 34.55 103.944 34.55H105.82C106.383 34.6426 106.665 34.55 106.665 34.3647ZM111.262 35.0131V31.0301H112.106L114.451 34.3647L116.797 31.0301H117.735V35.0131H117.172V31.5859L114.733 35.0131H114.357L111.918 31.5859V35.0131H111.262ZM118.391 33.9016V33.3458C118.298 32.9753 118.485 32.6048 118.86 32.4195C119.142 32.2343 119.517 32.2343 119.799 32.2343H120.549C120.924 32.2343 121.3 32.3269 121.581 32.4195C121.862 32.6974 122.05 33.0679 121.956 33.4384V33.7163H118.86V33.9016C118.86 34.1795 118.954 34.3647 119.142 34.55C119.423 34.6426 119.705 34.7352 119.986 34.7352H120.643C120.83 34.7352 121.112 34.7352 121.3 34.6426C121.393 34.55 121.487 34.3647 121.487 34.2721H121.956C121.956 34.55 121.862 34.8279 121.581 34.9205C121.206 35.0131 120.924 35.1057 120.549 35.1057H119.705C119.423 35.1057 119.048 35.1057 118.86 34.9205C118.579 34.6426 118.391 34.2721 118.391 33.9016ZM121.581 33.3458V33.1606C121.581 32.79 121.206 32.6048 120.549 32.6048H119.892C119.611 32.6048 119.329 32.6048 119.142 32.7901C118.954 32.9753 118.954 33.1606 118.954 33.4384H121.581V33.3458ZM126.272 31.0301V35.0131H125.803V34.55C125.709 34.8279 125.333 35.0131 124.771 35.0131H124.114C123.739 35.0131 123.363 34.9205 123.082 34.8279C122.801 34.6426 122.613 34.2721 122.613 33.9016V33.3458C122.613 32.9753 122.707 32.6974 122.894 32.4195C123.27 32.2343 123.645 32.1417 124.02 32.1417H124.771C125.24 32.1417 125.615 32.2343 125.709 32.5122V30.9375L126.272 31.0301ZM123.176 33.3458V33.9016C123.176 34.0868 123.176 34.3647 123.363 34.4573C123.551 34.6426 123.832 34.6426 124.114 34.6426H124.864C125.146 34.6426 125.427 34.55 125.615 34.4573C125.803 34.2721 125.803 34.0868 125.803 33.9016V33.3458C125.803 33.0679 125.709 32.8827 125.521 32.6974C125.24 32.6048 125.052 32.5122 124.771 32.6048H124.114C123.832 32.6048 123.645 32.6048 123.363 32.7901C123.27 32.8827 123.176 33.0679 123.176 33.3458ZM127.304 31.5859V31.1228H127.773V31.5859H127.304ZM127.304 35.0131V32.2343H127.773V35.0131H127.304ZM131.619 35.0131V34.7352C131.525 34.8279 131.431 34.9205 131.337 35.0131C131.056 35.1057 130.868 35.1057 130.587 35.1057H129.461C129.18 35.1057 128.898 35.0131 128.711 34.9205C128.617 34.7352 128.523 34.55 128.523 34.2721V34.0868C128.523 33.809 128.617 33.6237 128.898 33.5311C129.18 33.4384 129.555 33.3458 129.836 33.4384H130.587C130.775 33.4384 131.056 33.4384 131.244 33.5311C131.337 33.5311 131.525 33.7163 131.619 33.809V33.2532C131.619 33.0679 131.525 32.8827 131.337 32.7901C131.056 32.6974 130.775 32.6974 130.587 32.6974H129.93C129.743 32.6974 129.555 32.6974 129.367 32.7901C129.274 32.8827 129.18 32.9753 129.274 33.0679V33.1606H128.805V33.0679C128.805 32.8827 128.898 32.6048 129.086 32.5122C129.367 32.4195 129.649 32.3269 130.024 32.3269H130.775C131.15 32.3269 131.525 32.3269 131.807 32.5122C132.088 32.6974 132.276 32.9753 132.182 33.3458V35.1984L131.619 35.0131ZM131.619 34.2721V34.1795C131.619 33.9942 131.525 33.809 131.244 33.809C131.056 33.809 130.775 33.809 130.587 33.809H129.836C129.649 33.809 129.367 33.809 129.18 33.9016C129.086 33.9942 128.992 34.0868 128.992 34.2721C128.992 34.3647 128.992 34.55 129.086 34.6426C129.274 34.7352 129.461 34.7352 129.743 34.7352H130.399C130.681 34.7352 131.056 34.7352 131.337 34.6426C131.525 34.55 131.619 34.4573 131.619 34.2721Z" fill="white"/>
<mask id="mask0_19_4803" style="mask-type:luminance" maskUnits="userSpaceOnUse" x="59" y="30" width="74" height="7">
<path d="M61.2596 35.0131V31.4933H59.2896V31.0301H63.7925V31.4933H61.8225V35.0131H61.2596ZM64.1678 33.9016V33.3458C64.074 32.9753 64.2616 32.6048 64.6369 32.4195C64.9183 32.2343 65.2935 32.2343 65.575 32.2343H66.3255C66.7007 32.2343 67.076 32.3269 67.3574 32.4195C67.6389 32.6974 67.8265 33.0679 67.7327 33.4384V33.7163H64.6369V33.9016C64.6369 34.1795 64.7307 34.3647 64.9183 34.55C65.1997 34.6426 65.4812 34.7352 65.7626 34.7352H66.4193C66.6069 34.7352 66.8884 34.7352 67.076 34.6426C67.2636 34.55 67.2636 34.3647 67.2636 34.2721H67.7327V34.3647C67.7327 34.6426 67.6389 34.9205 67.3574 35.0131C66.9822 35.1057 66.7007 35.1984 66.3255 35.1984H65.4812C65.1997 35.1984 64.8245 35.1984 64.543 35.0131C64.2616 34.6426 64.1678 34.2721 64.1678 33.9016ZM67.3574 33.3458V33.1606C67.3574 32.79 67.076 32.6048 66.3255 32.6048H65.6688C65.3874 32.6048 65.1059 32.6048 64.9183 32.7901C64.7307 32.9753 64.7307 33.1606 64.7307 33.4384H67.3574V33.3458ZM68.3894 33.9016V33.3458C68.3894 32.9753 68.4832 32.6048 68.8584 32.4195C69.1399 32.2343 69.5151 32.2343 69.7965 32.2343H70.547C71.3913 32.2343 71.7666 32.5122 71.7666 33.1606V33.2532H71.2975V33.1606C71.2975 32.9753 71.2037 32.79 71.1099 32.6974C70.9223 32.6048 70.7347 32.6048 70.547 32.6048H69.7027C69.5151 32.6048 69.3275 32.6048 69.1398 32.6974C68.9522 32.8827 68.8584 33.0679 68.8584 33.3458V33.9016C68.8584 34.1795 68.9522 34.3647 69.1398 34.55C69.3275 34.6426 69.6089 34.7352 69.7965 34.7352H70.6409C71.2037 34.7352 71.4852 34.55 71.4852 34.1795V34.0868H71.9542V34.1795C71.9542 34.4573 71.8604 34.7352 71.6728 34.9205C71.3913 35.1057 71.0161 35.1984 70.7347 35.1057H69.7027C68.7646 35.1057 68.3894 34.6426 68.3894 33.9016ZM72.6109 35.0131V31.0301H73.08V32.6974C73.1738 32.5122 73.2676 32.3269 73.4552 32.2343C73.6428 32.1417 73.9243 32.1417 74.2057 32.1417H74.8624C75.6129 32.1417 76.082 32.4195 76.082 33.0679V34.9205H75.6129V33.1606C75.6129 32.9753 75.6129 32.79 75.4253 32.6974C75.1438 32.5122 74.8624 32.5122 74.581 32.5122H74.4872C74.1119 32.5122 73.7367 32.5122 73.3614 32.6974C73.1738 32.8827 73.08 33.1606 73.08 33.3458V34.9205L72.6109 35.0131ZM77.0201 35.0131V32.2343H77.4891V32.6974C77.583 32.5122 77.6768 32.3269 77.8644 32.2343C78.052 32.1417 78.3335 32.1417 78.6149 32.1417H79.3654C80.1159 32.1417 80.4911 32.4195 80.4911 33.0679V34.9205H80.0221V33.1606C80.0221 32.9753 80.0221 32.79 79.8345 32.6974C79.553 32.5122 79.2716 32.5122 78.9901 32.5122H78.8025C78.4273 32.5122 78.052 32.5122 77.6768 32.6974C77.4892 32.8827 77.3953 33.1606 77.3953 33.3458V34.9205L77.0201 35.0131ZM81.2416 33.9016V33.3458C81.2416 32.9753 81.3355 32.6048 81.7107 32.4195C82.086 32.2343 82.4612 32.1417 82.8365 32.2343H83.4931C83.8684 32.2343 84.2436 32.3269 84.6189 32.4195C84.9003 32.6048 85.0879 32.9753 85.0879 33.3458V33.9942C85.0879 34.3647 84.9941 34.7352 84.6189 34.9205C84.2436 35.1057 83.8684 35.1984 83.4931 35.1057H82.8365C82.4612 35.1057 82.086 35.0131 81.7107 34.9205C81.4293 34.6426 81.2416 34.2721 81.2416 33.9016ZM84.6189 33.9016V33.3458C84.6189 33.0679 84.5251 32.8827 84.3375 32.6974C84.1498 32.6048 83.8684 32.5122 83.6808 32.5122H82.7426C82.555 32.5122 82.2736 32.5122 82.086 32.6974C81.8983 32.8827 81.8045 33.0679 81.8045 33.3458V33.9016C81.8045 34.1795 81.8983 34.3647 82.086 34.55C82.2736 34.6426 82.555 34.7352 82.7426 34.7352H83.6808C83.9622 34.7352 84.1498 34.7352 84.3375 34.55C84.5251 34.3647 84.6189 34.1795 84.6189 33.9016ZM85.9323 35.0131V31.0301H86.4013V35.0131H85.9323ZM87.2456 33.9016V33.3458C87.2456 32.9753 87.3395 32.6048 87.7147 32.4195C88.0899 32.2343 88.4652 32.1417 88.8404 32.2343H89.4971C89.8724 32.2343 90.2476 32.3269 90.6229 32.4195C90.9043 32.6048 91.0919 32.9753 91.0919 33.3458V33.9942C91.0919 34.3647 90.9981 34.7352 90.6229 34.9205C90.2476 35.1057 89.8724 35.1984 89.4971 35.1057H88.8404C88.4652 35.1057 88.0899 35.0131 87.7147 34.9205C87.4333 34.6426 87.2456 34.2721 87.2456 33.9016ZM90.6229 33.9016V33.3458C90.6229 33.0679 90.5291 32.8827 90.3414 32.6974C90.1538 32.6048 89.8724 32.5122 89.6848 32.5122H88.7466C88.559 32.5122 88.2776 32.5122 88.09 32.6974C87.9023 32.8827 87.8085 33.0679 87.8085 33.3458V33.9016C87.8085 34.1795 87.9023 34.3647 88.09 34.55C88.2776 34.6426 88.559 34.7352 88.7466 34.7352H89.6848C89.8724 34.7352 90.1538 34.7352 90.3414 34.55C90.5291 34.3647 90.6229 34.1795 90.6229 33.9016ZM95.3135 32.2343V35.0131C95.3135 35.6615 94.8444 36.032 94.0001 36.032H92.9682C92.6868 36.032 92.3115 35.9394 92.1239 35.7541C91.9363 35.5689 91.8424 35.3836 91.9363 35.1984V35.1057H92.4053V35.1984C92.4053 35.4763 92.6868 35.6615 93.2496 35.6615H93.7187C94.0939 35.6615 94.3754 35.6615 94.7506 35.5689C94.9383 35.4763 95.0321 35.291 95.0321 34.9205V34.55C95.0321 34.6426 94.8444 34.8279 94.7506 34.8279C94.563 34.9205 94.2816 34.9205 94.0939 34.9205H92.8744C92.1239 34.9205 91.6548 34.55 91.6548 33.809V33.3458C91.6548 32.6048 92.0301 32.2343 92.9682 32.2343H94.0001C94.3754 32.1417 94.7506 32.4195 94.8444 32.7901V32.3269L95.3135 32.2343ZM94.8444 33.7163V33.3458C94.8444 33.1606 94.8444 32.8827 94.6568 32.6974C94.4692 32.5122 94.1878 32.4195 94.0001 32.5122H93.062C92.4991 32.5122 92.2177 32.6974 92.2177 33.0679V33.5311C92.2177 33.809 92.2177 33.9942 92.4053 34.1795C92.5929 34.2721 92.7806 34.3647 93.062 34.3647H94.0001C94.563 34.55 94.8444 34.2721 94.8444 33.7163ZM96.3454 36.032V35.6615C96.6269 35.6615 96.9083 35.6615 97.1897 35.5689C97.3774 35.4763 97.4712 35.291 97.565 35.1057H97.4712L95.8764 32.3269H96.4393L97.8464 34.8279L99.066 32.3269H99.5351L97.9403 35.4763C97.8464 35.7541 97.6588 35.9394 97.4712 36.032C97.0021 36.032 96.7207 36.032 96.3454 36.032ZM107.884 35.0131L107.134 34.6426C106.946 34.9205 106.477 35.1057 105.82 35.1057H103.85C103.475 35.1057 103.006 35.0131 102.725 34.8279C102.349 34.2721 102.349 33.6237 102.631 33.0679C102.818 32.8827 103.1 32.7901 103.381 32.7901C103.288 32.6974 103.1 32.6048 103.006 32.5122C102.912 32.3269 102.912 32.1417 102.912 31.9564C102.912 31.4006 103.194 31.1228 103.757 31.1228H105.727C106.383 31.1228 106.759 31.4006 106.759 32.049V32.4195H106.29V32.1417C106.29 31.8638 106.102 31.6785 105.727 31.6785H103.944C103.757 31.6785 103.663 31.6785 103.569 31.7711C103.475 31.8638 103.475 31.9564 103.475 32.049C103.475 32.1417 103.475 32.2343 103.475 32.3269C103.475 32.4195 103.569 32.5122 103.663 32.5122L106.759 34.0868V33.2532H107.228V34.0868C107.228 34.1795 107.228 34.2721 107.228 34.3647L108.072 34.8279L107.884 35.0131ZM106.665 34.3647L103.85 32.8827H103.663C103.569 32.8827 103.381 32.8827 103.288 32.9753C103.1 33.0679 103.006 33.3458 103.006 33.5311V33.809C103.006 33.9942 103.006 34.1795 103.194 34.3647C103.381 34.55 103.663 34.55 103.944 34.55H105.82C106.383 34.6426 106.665 34.55 106.665 34.3647ZM111.262 35.0131V31.0301H112.106L114.451 34.3647L116.797 31.0301H117.735V35.0131H117.172V31.5859L114.733 35.0131H114.357L111.918 31.5859V35.0131H111.262ZM118.391 33.9016V33.3458C118.298 32.9753 118.485 32.6048 118.86 32.4195C119.142 32.2343 119.517 32.2343 119.799 32.2343H120.549C120.924 32.2343 121.3 32.3269 121.581 32.4195C121.862 32.6974 122.05 33.0679 121.956 33.4384V33.7163H118.86V33.9016C118.86 34.1795 118.954 34.3647 119.142 34.55C119.423 34.6426 119.705 34.7352 119.986 34.7352H120.643C120.83 34.7352 121.112 34.7352 121.3 34.6426C121.393 34.55 121.487 34.3647 121.487 34.2721H121.956C121.956 34.55 121.862 34.8279 121.581 34.9205C121.206 35.0131 120.924 35.1057 120.549 35.1057H119.705C119.423 35.1057 119.048 35.1057 118.86 34.9205C118.579 34.6426 118.391 34.2721 118.391 33.9016ZM121.581 33.3458V33.1606C121.581 32.79 121.206 32.6048 120.549 32.6048H119.892C119.611 32.6048 119.329 32.6048 119.142 32.7901C118.954 32.9753 118.954 33.1606 118.954 33.4384H121.581V33.3458ZM126.272 31.0301V35.0131H125.803V34.55C125.709 34.8279 125.333 35.0131 124.771 35.0131H124.114C123.739 35.0131 123.363 34.9205 123.082 34.8279C122.801 34.6426 122.613 34.2721 122.613 33.9016V33.3458C122.613 32.9753 122.707 32.6974 122.894 32.4195C123.27 32.2343 123.645 32.1417 124.02 32.1417H124.771C125.24 32.1417 125.615 32.2343 125.709 32.5122V30.9375L126.272 31.0301ZM123.176 33.3458V33.9016C123.176 34.0868 123.176 34.3647 123.363 34.4573C123.551 34.6426 123.832 34.6426 124.114 34.6426H124.864C125.146 34.6426 125.427 34.55 125.615 34.4573C125.803 34.2721 125.803 34.0868 125.803 33.9016V33.3458C125.803 33.0679 125.709 32.8827 125.521 32.6974C125.24 32.6048 125.052 32.5122 124.771 32.6048H124.114C123.832 32.6048 123.645 32.6048 123.363 32.7901C123.27 32.8827 123.176 33.0679 123.176 33.3458ZM127.304 31.5859V31.1228H127.773V31.5859H127.304ZM127.304 35.0131V32.2343H127.773V35.0131H127.304ZM131.619 35.0131V34.7352C131.525 34.8279 131.431 34.9205 131.337 35.0131C131.056 35.1057 130.868 35.1057 130.587 35.1057H129.461C129.18 35.1057 128.898 35.0131 128.711 34.9205C128.617 34.7352 128.523 34.55 128.523 34.2721V34.0868C128.523 33.809 128.617 33.6237 128.898 33.5311C129.18 33.4384 129.555 33.3458 129.836 33.4384H130.587C130.775 33.4384 131.056 33.4384 131.244 33.5311C131.337 33.5311 131.525 33.7163 131.619 33.809V33.2532C131.619 33.0679 131.525 32.8827 131.337 32.7901C131.056 32.6974 130.775 32.6974 130.587 32.6974H129.93C129.743 32.6974 129.555 32.6974 129.367 32.7901C129.274 32.8827 129.18 32.9753 129.274 33.0679V33.1606H128.805V33.0679C128.805 32.8827 128.898 32.6048 129.086 32.5122C129.367 32.4195 129.649 32.3269 130.024 32.3269H130.775C131.15 32.3269 131.525 32.3269 131.807 32.5122C132.088 32.6974 132.276 32.9753 132.182 33.3458V35.1984L131.619 35.0131ZM131.619 34.2721V34.1795C131.619 33.9942 131.525 33.809 131.244 33.809C131.056 33.809 130.775 33.809 130.587 33.809H129.836C129.649 33.809 129.367 33.809 129.18 33.9016C129.086 33.9942 128.992 34.0868 128.992 34.2721C128.992 34.3647 128.992 34.55 129.086 34.6426C129.274 34.7352 129.461 34.7352 129.743 34.7352H130.399C130.681 34.7352 131.056 34.7352 131.337 34.6426C131.525 34.55 131.619 34.4573 131.619 34.2721Z" fill="white"/>
</mask>
<g mask="url(#mask0_19_4803)">
<path d="M141 28.3438H56.1001V38.1623H141V28.3438Z" fill="white"/>
</g>
</svg>
